<?xml version="1.0" encoding="utf-8"?>
<!-- Generator: Adobe Illustrator 16.0.0, SVG Export Plug-In . SVG Version: 6.00 Build 0)  -->
<!DOCTYPE svg PUBLIC "-//W3C//DTD SVG 1.1//EN" "http://www.w3.org/Graphics/SVG/1.1/DTD/svg11.dtd">
<svg version="1.1" id="Layer_1" xmlns="http://www.w3.org/2000/svg" xmlns:xlink="http://www.w3.org/1999/xlink" x="0px" y="0px"
	 width="560px" height="560px" viewBox="-92 -175.5 560 560" enable-background="new -92 -175.5 560 560" xml:space="preserve">
<path id="Icon_material-person-pin" fill="#20C4EE" d="M367.834-165.245H8.168c-28.367-0.007-51.371,22.983-51.377,51.351
	c0,0.008,0,0.017,0,0.026v359.665c-0.006,28.365,22.983,51.371,51.351,51.375c0.009,0,0.017,0,0.026,0h102.761L188,374.245
	l77.07-77.073h102.764c28.344-0.073,51.301-23.031,51.375-51.375v-359.665C419.135-142.212,396.178-165.171,367.834-165.245z
	 M187.987-80.471c38.312,0,69.361,31.057,69.361,69.363c0,38.309-31.049,69.362-69.361,69.362
	c-38.307,0-69.362-31.054-69.362-69.362l0,0C118.648-49.406,149.689-80.449,187.987-80.471z M342.127,194.405H33.862v-23.109
	c0-51.38,102.761-79.639,154.138-79.639s154.135,28.259,154.135,79.639L342.127,194.405z"/>
</svg>
