<?xml version="1.0" encoding="utf-8"?>
<!-- Generator: Adobe Illustrator 16.0.0, SVG Export Plug-In . SVG Version: 6.00 Build 0)  -->
<!DOCTYPE svg PUBLIC "-//W3C//DTD SVG 1.1//EN" "http://www.w3.org/Graphics/SVG/1.1/DTD/svg11.dtd">
<svg version="1.1" id="Layer_1" xmlns="http://www.w3.org/2000/svg" xmlns:xlink="http://www.w3.org/1999/xlink" x="0px" y="0px"
	 width="64px" height="64px" viewBox="0 0 64 64" enable-background="new 0 0 64 64" xml:space="preserve">
<g>
	<path stroke="#000000" stroke-width="3" stroke-miterlimit="10" d="M32.276,1.961c-16.708,0-30.3,13.592-30.3,30.3
		c0,6.356,1.947,12.44,5.629,17.594l4.17,4.184H3.87v1.895h10.416l0.947-0.947V44.57h-1.894v8.359l-4.238-4.238
		c-3.421-4.818-5.23-10.498-5.23-16.43c0-15.663,12.743-28.406,28.406-28.406c0.616,0,1.228,0.02,1.835,0.059l0.12-1.89
		C33.584,1.982,32.934,1.961,32.276,1.961z"/>
	<path stroke="#000000" stroke-miterlimit="10" d="M52.239,9.466l-1.247,1.424c0.931,0.816,1.816,1.7,2.629,2.626l1.422-1.249
		C54.176,11.278,53.232,10.336,52.239,9.466z"/>
	<path stroke="#000000" stroke-miterlimit="10" d="M60.986,41.975l-1.795-0.607c-0.396,1.174-0.875,2.328-1.42,3.436l1.697,0.838
		C60.053,44.459,60.562,43.227,60.986,41.975z"/>
	<path d="M47.452,58.492c1.138-0.658,2.245-1.4,3.292-2.207l-1.155-1.5c-0.981,0.756-2.02,1.451-3.085,2.068L47.452,58.492z"/>
	<path stroke="#000000" stroke-miterlimit="10" d="M46.461,7.645c1.069,0.619,2.109,1.313,3.091,2.066l1.152-1.503
		c-1.045-0.803-2.155-1.544-3.296-2.204L46.461,7.645z"/>
	<path stroke="#000000" stroke-miterlimit="10" d="M60.622,30.376c0.04,0.621,0.061,1.255,0.061,1.885
		c0,0.614-0.021,1.225-0.059,1.831l1.89,0.121c0.043-0.646,0.062-1.297,0.062-1.952c0-0.672-0.021-1.348-0.064-2.01L60.622,30.376z"
		/>
	<path d="M42.045,60.951c1.246-0.424,2.479-0.934,3.662-1.521l-0.841-1.697c-1.109,0.549-2.265,1.029-3.432,1.428L42.045,60.951z"/>
	<path d="M36.259,62.303c1.31-0.174,2.618-0.434,3.889-0.773l-0.491-1.83c-1.19,0.32-2.417,0.564-3.644,0.725L36.259,62.303z"/>
	<path stroke="#000000" stroke-miterlimit="10" d="M35.963,4.092c1.226,0.159,2.452,0.4,3.646,0.718l0.486-1.83
		c-1.273-0.339-2.582-0.597-3.89-0.766L35.963,4.092z"/>
	<path stroke="#000000" stroke-miterlimit="10" d="M61.544,24.39l-1.83,0.491c0.32,1.191,0.565,2.417,0.726,3.644l1.876-0.247
		C62.146,26.97,61.885,25.662,61.544,24.39z"/>
	<path stroke="#000000" stroke-width="0.5" stroke-miterlimit="10" d="M51.024,53.604l1.25,1.422c0.99-0.869,1.931-1.812,2.8-2.803
		l-1.425-1.25C52.835,51.902,51.952,52.787,51.024,53.604z"/>
	<path stroke="#000000" stroke-miterlimit="10" d="M62.323,36.188l-1.878-0.244c-0.159,1.23-0.4,2.457-0.718,3.646l1.831,0.486
		C61.896,38.807,62.155,37.496,62.323,36.188z"/>
	<path stroke="#000000" stroke-miterlimit="10" d="M54.803,14.952c0.756,0.982,1.451,2.02,2.068,3.085l1.638-0.948
		c-0.657-1.138-1.4-2.245-2.206-3.292L54.803,14.952z"/>
	<path stroke="#000000" stroke-miterlimit="10" d="M57.748,19.675c0.547,1.106,1.028,2.259,1.427,3.428l1.792-0.611
		c-0.425-1.247-0.935-2.478-1.52-3.658L57.748,19.675z"/>
	<path stroke="#000000" stroke-miterlimit="10" d="M41.386,5.348c1.17,0.396,2.325,0.874,3.436,1.42l0.837-1.699
		c-1.184-0.583-2.418-1.094-3.666-1.516L41.386,5.348z"/>
	<path stroke="#000000" stroke-width="0.75" stroke-miterlimit="10" d="M58.534,47.391l-1.64-0.947
		c-0.617,1.072-1.314,2.111-2.064,3.094l1.503,1.152C57.135,49.643,57.876,48.531,58.534,47.391z"/>
	<path d="M32.276,60.668v1.893c0.657,0,1.308-0.02,1.953-0.061l-0.12-1.889C33.504,60.646,32.893,60.668,32.276,60.668z"/>
</g>
</svg>
