<?xml version="1.0" encoding="utf-8"?>
<!-- Generator: Adobe Illustrator 16.0.0, SVG Export Plug-In . SVG Version: 6.00 Build 0)  -->
<!DOCTYPE svg PUBLIC "-//W3C//DTD SVG 1.1//EN" "http://www.w3.org/Graphics/SVG/1.1/DTD/svg11.dtd">
<svg version="1.1" id="Bot_3" xmlns="http://www.w3.org/2000/svg" xmlns:xlink="http://www.w3.org/1999/xlink" x="0px" y="0px"
	 width="600px" height="600px" viewBox="0 0 600 600" enable-background="new 0 0 600 600" xml:space="preserve">
<g>
	<g>
		<linearGradient id="XMLID_2_" gradientUnits="userSpaceOnUse" x1="411.5732" y1="637.4443" x2="189.8109" y2="-55.562">
			<stop  offset="0.0538" style="stop-color:#4A00E0"/>
			<stop  offset="1" style="stop-color:#2151EA"/>
		</linearGradient>
		<rect id="XMLID_914_" x="-4.721" y="-34.368" fill="url(#XMLID_2_)" width="609.441" height="646.289"/>
		<g id="XMLID_615_">
			<defs>
				<rect id="XMLID_616_" x="-4.721" y="-34.368" width="609.441" height="646.289"/>
			</defs>
			<clipPath id="XMLID_3_">
				<use xlink:href="#XMLID_616_"  overflow="visible"/>
			</clipPath>
			<g id="XMLID_617_" clip-path="url(#XMLID_3_)">
				<path id="XMLID_8_" opacity="0" fill="none" stroke="#FFFFFF" stroke-width="0.2867" stroke-miterlimit="10" d="M329.988-34.368
					c0,12.418-13.424,22.485-29.99,22.485c-16.562,0-29.99-10.067-29.99-22.485c0-12.419,13.429-22.486,29.99-22.486
					C316.564-56.854,329.988-46.787,329.988-34.368z"/>
				
					<ellipse opacity="0.0244" fill="none" stroke="#FFFFFF" stroke-width="0.4232" stroke-miterlimit="10" cx="299.998" cy="-34.368" rx="54.883" ry="41.15"/>
				
					<ellipse opacity="0.0488" fill="none" stroke="#FFFFFF" stroke-width="0.5597" stroke-miterlimit="10" cx="299.998" cy="-34.368" rx="79.774" ry="59.814"/>
				<path opacity="0.0732" fill="none" stroke="#FFFFFF" stroke-width="0.6962" stroke-miterlimit="10" d="M404.664-34.368
					c0,43.342-46.857,78.479-104.666,78.479c-57.803,0-104.666-35.137-104.666-78.479c0-43.343,46.863-78.48,104.666-78.48
					C357.807-112.848,404.664-77.711,404.664-34.368z"/>
				
					<ellipse opacity="0.0976" fill="none" stroke="#FFFFFF" stroke-width="0.8326" stroke-miterlimit="10" cx="299.998" cy="-34.368" rx="129.559" ry="97.143"/>
				<path opacity="0.122" fill="none" stroke="#FFFFFF" stroke-width="0.9691" stroke-miterlimit="10" d="M454.447-34.367
					c0,63.958-69.146,115.807-154.449,115.807c-85.299,0-154.449-51.849-154.449-115.807c0-63.96,69.15-115.81,154.449-115.81
					C385.301-150.177,454.447-98.328,454.447-34.367z"/>
				<path opacity="0.1463" fill="none" stroke="#FFFFFF" stroke-width="1.1056" stroke-miterlimit="10" d="M479.34-34.368
					c0,74.267-80.291,134.472-179.342,134.472c-99.045,0-179.342-60.205-179.342-134.472c0-74.268,80.297-134.473,179.342-134.473
					C399.049-168.841,479.34-108.636,479.34-34.368z"/>
				<path opacity="0.1707" fill="none" stroke="#FFFFFF" stroke-width="1.2421" stroke-miterlimit="10" d="M504.231-34.368
					c0,84.575-91.436,153.137-204.233,153.137c-112.793,0-204.233-68.562-204.233-153.137c0-84.576,91.44-153.138,204.233-153.138
					C412.796-187.506,504.231-118.944,504.231-34.368z"/>
				
					<ellipse opacity="0.1951" fill="none" stroke="#FFFFFF" stroke-width="1.3785" stroke-miterlimit="10" cx="299.998" cy="-34.368" rx="229.125" ry="171.801"/>
				<path opacity="0.2195" fill="none" stroke="#FFFFFF" stroke-width="1.515" stroke-miterlimit="10" d="M554.016-34.368
					c0,105.191-113.725,190.466-254.018,190.466C159.71,156.098,45.98,70.824,45.98-34.368
					c0-105.192,113.729-190.467,254.018-190.467C440.291-224.835,554.016-139.56,554.016-34.368z"/>
				<path opacity="0.2439" fill="none" stroke="#FFFFFF" stroke-width="1.6515" stroke-miterlimit="10" d="M578.907-34.367
					c0,115.499-124.869,209.13-278.909,209.13c-154.035,0-278.908-93.631-278.908-209.13c0-115.501,124.873-209.132,278.908-209.132
					C454.038-243.499,578.907-149.868,578.907-34.367z"/>
				
					<ellipse opacity="0.2683" fill="none" stroke="#FFFFFF" stroke-width="1.788" stroke-miterlimit="10" cx="299.998" cy="-34.367" rx="303.801" ry="227.794"/>
				
					<ellipse opacity="0.2927" fill="none" stroke="#FFFFFF" stroke-width="1.9245" stroke-miterlimit="10" cx="299.998" cy="-34.368" rx="328.692" ry="246.459"/>
				
					<ellipse opacity="0.3171" fill="none" stroke="#FFFFFF" stroke-width="2.0609" stroke-miterlimit="10" cx="299.998" cy="-34.368" rx="353.585" ry="265.124"/>
				
					<ellipse opacity="0.3415" fill="none" stroke="#FFFFFF" stroke-width="2.1974" stroke-miterlimit="10" cx="299.998" cy="-34.368" rx="378.477" ry="283.789"/>
				
					<ellipse opacity="0.3659" fill="none" stroke="#FFFFFF" stroke-width="2.3339" stroke-miterlimit="10" cx="299.998" cy="-34.368" rx="403.369" ry="302.453"/>
				
					<ellipse opacity="0.3902" fill="none" stroke="#FFFFFF" stroke-width="2.4704" stroke-miterlimit="10" cx="299.998" cy="-34.368" rx="428.26" ry="321.117"/>
				
					<ellipse opacity="0.4146" fill="none" stroke="#FFFFFF" stroke-width="2.6069" stroke-miterlimit="10" cx="299.998" cy="-34.368" rx="453.152" ry="339.782"/>
				<path opacity="0.439" fill="none" stroke="#FFFFFF" stroke-width="2.7433" stroke-miterlimit="10" d="M778.043-34.367
					c0,197.964-214.025,358.446-478.045,358.446c-264.014,0-478.043-160.482-478.043-358.446
					c0-197.966,214.029-358.448,478.043-358.448C564.018-392.815,778.043-232.333,778.043-34.367z"/>
				
					<ellipse opacity="0.4634" fill="none" stroke="#FFFFFF" stroke-width="2.8798" stroke-miterlimit="10" cx="299.998" cy="-34.368" rx="502.936" ry="377.111"/>
				<path opacity="0.4878" fill="none" stroke="#FFFFFF" stroke-width="3.0163" stroke-miterlimit="10" d="M827.825-34.368
					c0,218.581-236.313,395.776-527.827,395.776c-291.51,0-527.828-177.195-527.828-395.776
					c0-218.582,236.318-395.777,527.828-395.777C591.512-430.145,827.825-252.95,827.825-34.368z"/>
				<path opacity="0.5122" fill="none" stroke="#FFFFFF" stroke-width="3.1528" stroke-miterlimit="10" d="M852.718-34.368
					c0,228.889-247.459,414.44-552.72,414.44c-305.256,0-552.72-185.551-552.72-414.44c0-228.89,247.464-414.442,552.72-414.442
					C605.259-448.81,852.718-263.258,852.718-34.368z"/>
				
					<ellipse opacity="0.5366" fill="none" stroke="#FFFFFF" stroke-width="3.2892" stroke-miterlimit="10" cx="299.998" cy="-34.368" rx="577.611" ry="433.105"/>
				
					<ellipse opacity="0.561" fill="none" stroke="#FFFFFF" stroke-width="3.4257" stroke-miterlimit="10" cx="299.998" cy="-34.368" rx="602.504" ry="451.769"/>
				<path opacity="0.5854" fill="none" stroke="#FFFFFF" stroke-width="3.5622" stroke-miterlimit="10" d="M927.394-34.368
					c0,259.813-280.894,470.434-627.396,470.434c-346.498,0-627.395-210.621-627.395-470.434S-46.5-504.803,299.998-504.803
					C646.5-504.803,927.394-294.182,927.394-34.368z"/>
				
					<ellipse opacity="0.6098" fill="none" stroke="#FFFFFF" stroke-width="3.6987" stroke-miterlimit="10" cx="299.998" cy="-34.367" rx="652.287" ry="489.098"/>
				<path opacity="0.6341" fill="none" stroke="#FFFFFF" stroke-width="3.8352" stroke-miterlimit="10" d="M977.178-34.368
					c0,280.429-303.183,507.763-677.18,507.763c-373.993,0-677.179-227.333-677.179-507.763
					c0-280.43,303.186-507.764,677.179-507.764C673.995-542.132,977.178-314.798,977.178-34.368z"/>
				<path opacity="0.6585" fill="none" stroke="#FFFFFF" stroke-width="3.9716" stroke-miterlimit="10" d="M1002.069-34.368
					c0,290.738-314.327,526.428-702.071,526.428c-387.74,0-702.07-235.689-702.07-526.428c0-290.738,314.33-526.428,702.07-526.428
					C687.742-560.796,1002.069-325.106,1002.069-34.368z"/>
				
					<ellipse opacity="0.6829" fill="none" stroke="#FFFFFF" stroke-width="4.1081" stroke-miterlimit="10" cx="299.998" cy="-34.368" rx="726.963" ry="545.091"/>
				
					<ellipse opacity="0.7073" fill="none" stroke="#FFFFFF" stroke-width="4.2446" stroke-miterlimit="10" cx="299.998" cy="-34.368" rx="751.854" ry="563.756"/>
				
					<ellipse opacity="0.7317" fill="none" stroke="#FFFFFF" stroke-width="4.3811" stroke-miterlimit="10" cx="299.998" cy="-34.368" rx="776.746" ry="582.42"/>
				<path opacity="0.7561" fill="none" stroke="#FFFFFF" stroke-width="4.5175" stroke-miterlimit="10" d="M1101.637-34.368
					c0,331.97-358.904,601.085-801.639,601.085c-442.729,0-801.638-269.115-801.638-601.085
					c0-331.971,358.908-601.086,801.638-601.086C742.732-635.454,1101.637-366.339,1101.637-34.368z"/>
				<path opacity="0.7805" fill="none" stroke="#FFFFFF" stroke-width="4.654" stroke-miterlimit="10" d="M1126.528-34.368
					c0,342.279-370.049,619.75-826.53,619.75c-456.477,0-826.529-277.471-826.529-619.75c0-342.278,370.053-619.751,826.529-619.751
					C756.479-654.119,1126.528-376.646,1126.528-34.368z"/>
				
					<ellipse opacity="0.8049" fill="none" stroke="#FFFFFF" stroke-width="4.7905" stroke-miterlimit="10" cx="299.998" cy="-34.368" rx="851.422" ry="638.414"/>
				<path opacity="0.8293" fill="none" stroke="#FFFFFF" stroke-width="4.927" stroke-miterlimit="10" d="M1176.312-34.368
					c0,362.895-392.338,657.079-876.313,657.079c-483.972,0-876.313-294.184-876.313-657.079
					c0-362.895,392.342-657.08,876.313-657.08C783.974-691.448,1176.312-397.263,1176.312-34.368z"/>
				<path opacity="0.8537" fill="none" stroke="#FFFFFF" stroke-width="5.0635" stroke-miterlimit="10" d="M1201.203-34.367
					c0,373.202-403.481,675.742-901.205,675.742c-497.719,0-901.205-302.54-901.205-675.742
					c0-373.204,403.486-675.745,901.205-675.745C797.722-710.112,1201.203-407.571,1201.203-34.367z"/>
				<path opacity="0.878" fill="none" stroke="#FFFFFF" stroke-width="5.1999" stroke-miterlimit="10" d="M1226.096-34.368
					c0,383.51-414.627,694.408-926.098,694.408c-511.467,0-926.097-310.897-926.097-694.408
					c0-383.512,414.63-694.409,926.097-694.409C811.469-728.776,1226.096-417.879,1226.096-34.368z"/>
				<path opacity="0.9024" fill="none" stroke="#FFFFFF" stroke-width="5.3364" stroke-miterlimit="10" d="M1250.987-34.368
					c0,393.819-425.771,713.072-950.989,713.072c-525.214,0-950.988-319.253-950.988-713.072
					c0-393.82,425.774-713.073,950.988-713.073C825.216-747.441,1250.987-428.188,1250.987-34.368z"/>
				<path opacity="0.9268" fill="none" stroke="#FFFFFF" stroke-width="5.4729" stroke-miterlimit="10" d="M1275.879-34.368
					c0,404.127-436.916,731.737-975.881,731.737c-538.961,0-975.88-327.61-975.88-731.737c0-404.128,436.919-731.738,975.88-731.738
					C838.963-766.105,1275.879-438.496,1275.879-34.368z"/>
				<path opacity="0.9512" fill="none" stroke="#FFFFFF" stroke-width="5.6094" stroke-miterlimit="10" d="M1300.771-34.368
					c0,414.435-448.061,750.401-1000.773,750.401c-552.708,0-1000.771-335.966-1000.771-750.401
					c0-414.436,448.063-750.403,1000.771-750.403C852.711-784.771,1300.771-448.804,1300.771-34.368z"/>
				
					<ellipse opacity="0.9756" fill="none" stroke="#FFFFFF" stroke-width="5.7459" stroke-miterlimit="10" cx="299.998" cy="-34.368" rx="1025.664" ry="769.066"/>
				<path id="XMLID_7_" fill="none" stroke="#FFFFFF" stroke-width="5.8823" stroke-miterlimit="10" d="M1350.555-34.368
					c0,435.051-470.35,787.73-1050.557,787.73c-580.203,0-1050.556-352.679-1050.556-787.73
					c0-435.052,470.353-787.731,1050.556-787.731C880.205-822.099,1350.555-469.42,1350.555-34.368z"/>
			</g>
		</g>
		<g id="XMLID_502_">
			<defs>
				<rect id="XMLID_504_" x="-4.721" y="-34.368" width="609.441" height="646.289"/>
			</defs>
			<clipPath id="XMLID_4_">
				<use xlink:href="#XMLID_504_"  overflow="visible"/>
			</clipPath>
			<g id="XMLID_505_" clip-path="url(#XMLID_4_)">
				<path id="XMLID_6_" opacity="0" fill="none" stroke="#FFFFFF" stroke-width="0.2867" stroke-miterlimit="10" d="M329.988-34.368
					c0,12.418-13.424,22.485-29.99,22.485c-16.562,0-29.99-10.067-29.99-22.485c0-12.419,13.429-22.486,29.99-22.486
					C316.564-56.854,329.988-46.787,329.988-34.368z"/>
				
					<ellipse opacity="0.0244" fill="none" stroke="#FFFFFF" stroke-width="0.4232" stroke-miterlimit="10" cx="299.998" cy="-34.368" rx="54.883" ry="41.15"/>
				
					<ellipse opacity="0.0488" fill="none" stroke="#FFFFFF" stroke-width="0.5597" stroke-miterlimit="10" cx="299.998" cy="-34.368" rx="79.774" ry="59.814"/>
				<path opacity="0.0732" fill="none" stroke="#FFFFFF" stroke-width="0.6962" stroke-miterlimit="10" d="M404.664-34.368
					c0,43.342-46.857,78.479-104.666,78.479c-57.803,0-104.666-35.137-104.666-78.479c0-43.343,46.863-78.48,104.666-78.48
					C357.807-112.848,404.664-77.711,404.664-34.368z"/>
				
					<ellipse opacity="0.0976" fill="none" stroke="#FFFFFF" stroke-width="0.8326" stroke-miterlimit="10" cx="299.998" cy="-34.368" rx="129.559" ry="97.143"/>
				<path opacity="0.122" fill="none" stroke="#FFFFFF" stroke-width="0.9691" stroke-miterlimit="10" d="M454.447-34.367
					c0,63.958-69.146,115.807-154.449,115.807c-85.299,0-154.449-51.849-154.449-115.807c0-63.96,69.15-115.81,154.449-115.81
					C385.301-150.177,454.447-98.328,454.447-34.367z"/>
				<path opacity="0.1463" fill="none" stroke="#FFFFFF" stroke-width="1.1056" stroke-miterlimit="10" d="M479.34-34.368
					c0,74.267-80.291,134.472-179.342,134.472c-99.045,0-179.342-60.205-179.342-134.472c0-74.268,80.297-134.473,179.342-134.473
					C399.049-168.841,479.34-108.636,479.34-34.368z"/>
				<path opacity="0.1707" fill="none" stroke="#FFFFFF" stroke-width="1.2421" stroke-miterlimit="10" d="M504.231-34.368
					c0,84.575-91.436,153.137-204.233,153.137c-112.793,0-204.233-68.562-204.233-153.137c0-84.576,91.44-153.138,204.233-153.138
					C412.796-187.506,504.231-118.944,504.231-34.368z"/>
				
					<ellipse opacity="0.1951" fill="none" stroke="#FFFFFF" stroke-width="1.3785" stroke-miterlimit="10" cx="299.998" cy="-34.368" rx="229.125" ry="171.801"/>
				<path opacity="0.2195" fill="none" stroke="#FFFFFF" stroke-width="1.515" stroke-miterlimit="10" d="M554.016-34.368
					c0,105.191-113.725,190.466-254.018,190.466C159.71,156.098,45.98,70.824,45.98-34.368
					c0-105.192,113.729-190.467,254.018-190.467C440.291-224.835,554.016-139.56,554.016-34.368z"/>
				<path opacity="0.2439" fill="none" stroke="#FFFFFF" stroke-width="1.6515" stroke-miterlimit="10" d="M578.907-34.367
					c0,115.499-124.869,209.13-278.909,209.13c-154.035,0-278.908-93.631-278.908-209.13c0-115.501,124.873-209.132,278.908-209.132
					C454.038-243.499,578.907-149.868,578.907-34.367z"/>
				
					<ellipse opacity="0.2683" fill="none" stroke="#FFFFFF" stroke-width="1.788" stroke-miterlimit="10" cx="299.998" cy="-34.367" rx="303.801" ry="227.794"/>
				
					<ellipse opacity="0.2927" fill="none" stroke="#FFFFFF" stroke-width="1.9245" stroke-miterlimit="10" cx="299.998" cy="-34.368" rx="328.692" ry="246.459"/>
				
					<ellipse opacity="0.3171" fill="none" stroke="#FFFFFF" stroke-width="2.0609" stroke-miterlimit="10" cx="299.998" cy="-34.368" rx="353.585" ry="265.124"/>
				
					<ellipse opacity="0.3415" fill="none" stroke="#FFFFFF" stroke-width="2.1974" stroke-miterlimit="10" cx="299.998" cy="-34.368" rx="378.477" ry="283.789"/>
				
					<ellipse opacity="0.3659" fill="none" stroke="#FFFFFF" stroke-width="2.3339" stroke-miterlimit="10" cx="299.998" cy="-34.368" rx="403.369" ry="302.453"/>
				
					<ellipse opacity="0.3902" fill="none" stroke="#FFFFFF" stroke-width="2.4704" stroke-miterlimit="10" cx="299.998" cy="-34.368" rx="428.26" ry="321.117"/>
				
					<ellipse opacity="0.4146" fill="none" stroke="#FFFFFF" stroke-width="2.6069" stroke-miterlimit="10" cx="299.998" cy="-34.368" rx="453.152" ry="339.782"/>
				<path opacity="0.439" fill="none" stroke="#FFFFFF" stroke-width="2.7433" stroke-miterlimit="10" d="M778.043-34.367
					c0,197.964-214.025,358.446-478.045,358.446c-264.014,0-478.043-160.482-478.043-358.446
					c0-197.966,214.029-358.448,478.043-358.448C564.018-392.815,778.043-232.333,778.043-34.367z"/>
				
					<ellipse opacity="0.4634" fill="none" stroke="#FFFFFF" stroke-width="2.8798" stroke-miterlimit="10" cx="299.998" cy="-34.368" rx="502.936" ry="377.111"/>
				<path opacity="0.4878" fill="none" stroke="#FFFFFF" stroke-width="3.0163" stroke-miterlimit="10" d="M827.825-34.368
					c0,218.581-236.313,395.776-527.827,395.776c-291.51,0-527.828-177.195-527.828-395.776
					c0-218.582,236.318-395.777,527.828-395.777C591.512-430.145,827.825-252.95,827.825-34.368z"/>
				<path opacity="0.5122" fill="none" stroke="#FFFFFF" stroke-width="3.1528" stroke-miterlimit="10" d="M852.718-34.368
					c0,228.889-247.459,414.44-552.72,414.44c-305.256,0-552.72-185.551-552.72-414.44c0-228.89,247.464-414.442,552.72-414.442
					C605.259-448.81,852.718-263.258,852.718-34.368z"/>
				
					<ellipse opacity="0.5366" fill="none" stroke="#FFFFFF" stroke-width="3.2892" stroke-miterlimit="10" cx="299.998" cy="-34.368" rx="577.611" ry="433.105"/>
				
					<ellipse opacity="0.561" fill="none" stroke="#FFFFFF" stroke-width="3.4257" stroke-miterlimit="10" cx="299.998" cy="-34.368" rx="602.504" ry="451.769"/>
				<path opacity="0.5854" fill="none" stroke="#FFFFFF" stroke-width="3.5622" stroke-miterlimit="10" d="M927.394-34.368
					c0,259.813-280.894,470.434-627.396,470.434c-346.498,0-627.395-210.621-627.395-470.434S-46.5-504.803,299.998-504.803
					C646.5-504.803,927.394-294.182,927.394-34.368z"/>
				
					<ellipse opacity="0.6098" fill="none" stroke="#FFFFFF" stroke-width="3.6987" stroke-miterlimit="10" cx="299.998" cy="-34.367" rx="652.287" ry="489.098"/>
				<path opacity="0.6341" fill="none" stroke="#FFFFFF" stroke-width="3.8352" stroke-miterlimit="10" d="M977.178-34.368
					c0,280.429-303.183,507.763-677.18,507.763c-373.993,0-677.179-227.333-677.179-507.763
					c0-280.43,303.186-507.764,677.179-507.764C673.995-542.132,977.178-314.798,977.178-34.368z"/>
				<path opacity="0.6585" fill="none" stroke="#FFFFFF" stroke-width="3.9716" stroke-miterlimit="10" d="M1002.069-34.368
					c0,290.738-314.327,526.428-702.071,526.428c-387.74,0-702.07-235.689-702.07-526.428c0-290.738,314.33-526.428,702.07-526.428
					C687.742-560.796,1002.069-325.106,1002.069-34.368z"/>
				
					<ellipse opacity="0.6829" fill="none" stroke="#FFFFFF" stroke-width="4.1081" stroke-miterlimit="10" cx="299.998" cy="-34.368" rx="726.963" ry="545.091"/>
				
					<ellipse opacity="0.7073" fill="none" stroke="#FFFFFF" stroke-width="4.2446" stroke-miterlimit="10" cx="299.998" cy="-34.368" rx="751.854" ry="563.756"/>
				
					<ellipse opacity="0.7317" fill="none" stroke="#FFFFFF" stroke-width="4.3811" stroke-miterlimit="10" cx="299.998" cy="-34.368" rx="776.746" ry="582.42"/>
				<path opacity="0.7561" fill="none" stroke="#FFFFFF" stroke-width="4.5175" stroke-miterlimit="10" d="M1101.637-34.368
					c0,331.97-358.904,601.085-801.639,601.085c-442.729,0-801.638-269.115-801.638-601.085
					c0-331.971,358.908-601.086,801.638-601.086C742.732-635.454,1101.637-366.339,1101.637-34.368z"/>
				<path opacity="0.7805" fill="none" stroke="#FFFFFF" stroke-width="4.654" stroke-miterlimit="10" d="M1126.528-34.368
					c0,342.279-370.049,619.75-826.53,619.75c-456.477,0-826.529-277.471-826.529-619.75c0-342.278,370.053-619.751,826.529-619.751
					C756.479-654.119,1126.528-376.646,1126.528-34.368z"/>
				
					<ellipse opacity="0.8049" fill="none" stroke="#FFFFFF" stroke-width="4.7905" stroke-miterlimit="10" cx="299.998" cy="-34.368" rx="851.422" ry="638.414"/>
				<path opacity="0.8293" fill="none" stroke="#FFFFFF" stroke-width="4.927" stroke-miterlimit="10" d="M1176.312-34.368
					c0,362.895-392.338,657.079-876.313,657.079c-483.972,0-876.313-294.184-876.313-657.079
					c0-362.895,392.342-657.08,876.313-657.08C783.974-691.448,1176.312-397.263,1176.312-34.368z"/>
				<path opacity="0.8537" fill="none" stroke="#FFFFFF" stroke-width="5.0635" stroke-miterlimit="10" d="M1201.203-34.367
					c0,373.202-403.481,675.742-901.205,675.742c-497.719,0-901.205-302.54-901.205-675.742
					c0-373.204,403.486-675.745,901.205-675.745C797.722-710.112,1201.203-407.571,1201.203-34.367z"/>
				<path opacity="0.878" fill="none" stroke="#FFFFFF" stroke-width="5.1999" stroke-miterlimit="10" d="M1226.096-34.368
					c0,383.51-414.627,694.408-926.098,694.408c-511.467,0-926.097-310.897-926.097-694.408
					c0-383.512,414.63-694.409,926.097-694.409C811.469-728.776,1226.096-417.879,1226.096-34.368z"/>
				<path opacity="0.9024" fill="none" stroke="#FFFFFF" stroke-width="5.3364" stroke-miterlimit="10" d="M1250.987-34.368
					c0,393.819-425.771,713.072-950.989,713.072c-525.214,0-950.988-319.253-950.988-713.072
					c0-393.82,425.774-713.073,950.988-713.073C825.216-747.441,1250.987-428.188,1250.987-34.368z"/>
				<path opacity="0.9268" fill="none" stroke="#FFFFFF" stroke-width="5.4729" stroke-miterlimit="10" d="M1275.879-34.368
					c0,404.127-436.916,731.737-975.881,731.737c-538.961,0-975.88-327.61-975.88-731.737c0-404.128,436.919-731.738,975.88-731.738
					C838.963-766.105,1275.879-438.496,1275.879-34.368z"/>
				<path opacity="0.9512" fill="none" stroke="#FFFFFF" stroke-width="5.6094" stroke-miterlimit="10" d="M1300.771-34.368
					c0,414.435-448.061,750.401-1000.773,750.401c-552.708,0-1000.771-335.966-1000.771-750.401
					c0-414.436,448.063-750.403,1000.771-750.403C852.711-784.771,1300.771-448.804,1300.771-34.368z"/>
				
					<ellipse opacity="0.9756" fill="none" stroke="#FFFFFF" stroke-width="5.7459" stroke-miterlimit="10" cx="299.998" cy="-34.368" rx="1025.664" ry="769.066"/>
				<path id="XMLID_5_" fill="none" stroke="#FFFFFF" stroke-width="5.8823" stroke-miterlimit="10" d="M1350.555-34.368
					c0,435.051-470.35,787.73-1050.557,787.73c-580.203,0-1050.556-352.679-1050.556-787.73
					c0-435.052,470.353-787.731,1050.556-787.731C880.205-822.099,1350.555-469.42,1350.555-34.368z"/>
			</g>
		</g>
	</g>
</g>
<g>
	<path fill="#FFFFFF" d="M129.83,164.21h-13.554c-1.521,0-2.759-0.38-3.714-1.14c-0.957-0.76-1.674-1.705-2.15-2.835l-7.038-19.223
		H64.342l-7.037,19.223c-0.349,1-1.021,1.912-2.021,2.737c-1,0.826-2.237,1.238-3.714,1.238H37.886l37.077-94.225h17.855
		L129.83,164.21z M98.878,128.631L87.409,97.288c-0.565-1.39-1.151-3.04-1.759-4.952c-0.609-1.911-1.217-3.975-1.825-6.19
		c-0.565,2.215-1.151,4.291-1.759,6.223c-0.609,1.934-1.195,3.617-1.76,5.05l-11.404,31.213H98.878z"/>
	<path fill="#FFFFFF" d="M153.027,105.564c2.693-2.824,5.68-5.072,8.96-6.745c3.279-1.672,7.026-2.509,11.24-2.509
		c3.866,0,7.353,0.761,10.458,2.281c3.105,1.521,5.756,3.704,7.951,6.549c2.192,2.846,3.877,6.288,5.049,10.328
		c1.174,4.041,1.76,8.58,1.76,13.619c0,5.431-0.674,10.361-2.02,14.792c-1.348,4.431-3.27,8.222-5.768,11.371
		c-2.498,3.15-5.506,5.594-9.024,7.331c-3.519,1.737-7.429,2.606-11.729,2.606c-2.085,0-3.975-0.207-5.669-0.619
		c-1.694-0.413-3.259-0.988-4.692-1.727c-1.434-0.738-2.748-1.639-3.941-2.704c-1.195-1.064-2.336-2.248-3.422-3.551l-0.717,4.496
		c-0.26,1.13-0.706,1.934-1.336,2.411c-0.629,0.479-1.488,0.717-2.573,0.717h-10.622V67.378h16.096V105.564z M153.027,146.877
		c1.824,2.215,3.812,3.779,5.963,4.691c2.15,0.913,4.42,1.369,6.809,1.369c2.477,0,4.702-0.445,6.68-1.336
		c1.977-0.89,3.659-2.281,5.05-4.17c1.39-1.89,2.454-4.301,3.192-7.233c0.738-2.933,1.108-6.44,1.108-10.524
		c0-7.341-1.217-12.652-3.649-15.932c-2.434-3.279-5.93-4.92-10.49-4.92c-3.086,0-5.779,0.707-8.08,2.118
		c-2.304,1.413-4.497,3.4-6.582,5.962V146.877z"/>
	<path fill="#FFFFFF" d="M226.073,108.952c2.085-3.996,4.562-7.135,7.429-9.416s6.256-3.421,10.165-3.421
		c3.084,0,5.56,0.674,7.429,2.02l-1.043,12.055c-0.218,0.782-0.532,1.336-0.945,1.662c-0.412,0.326-0.967,0.489-1.661,0.489
		c-0.651,0-1.618-0.108-2.899-0.326c-1.282-0.217-2.531-0.326-3.747-0.326c-1.782,0-3.367,0.261-4.757,0.782
		c-1.391,0.521-2.639,1.271-3.747,2.248c-1.107,0.978-2.085,2.162-2.933,3.551c-0.847,1.391-1.64,2.976-2.378,4.757v41.183h-16.095
		V97.354h9.448c1.65,0,2.802,0.293,3.454,0.879c0.65,0.586,1.085,1.64,1.303,3.161L226.073,108.952z"/>
	<path fill="#FFFFFF" d="M278.396,77.87c0,1.391-0.283,2.694-0.847,3.91c-0.565,1.217-1.314,2.281-2.249,3.193
		c-0.934,0.912-2.03,1.64-3.29,2.183c-1.261,0.544-2.606,0.814-4.04,0.814c-1.391,0-2.704-0.271-3.942-0.814
		c-1.237-0.542-2.313-1.271-3.226-2.183c-0.912-0.913-1.641-1.977-2.183-3.193c-0.544-1.215-0.815-2.519-0.815-3.91
		c0-1.434,0.271-2.779,0.815-4.04c0.542-1.259,1.271-2.346,2.183-3.258c0.912-0.913,1.988-1.64,3.226-2.183
		c1.238-0.542,2.552-0.814,3.942-0.814c1.434,0,2.779,0.272,4.04,0.814c1.26,0.543,2.356,1.271,3.29,2.183
		c0.935,0.912,1.684,1.999,2.249,3.258C278.113,75.09,278.396,76.436,278.396,77.87z M276.182,97.354v66.856h-16.16V97.354H276.182z
		"/>
	<path fill="#FFFFFF" d="M307.785,108.952c2.084-3.996,4.561-7.135,7.428-9.416s6.256-3.421,10.166-3.421
		c3.084,0,5.56,0.674,7.428,2.02l-1.043,12.055c-0.217,0.782-0.531,1.336-0.944,1.662s-0.968,0.489-1.661,0.489
		c-0.652,0-1.619-0.108-2.9-0.326c-1.281-0.217-2.531-0.326-3.746-0.326c-1.782,0-3.367,0.261-4.758,0.782
		c-1.391,0.521-2.639,1.271-3.746,2.248s-2.086,2.162-2.933,3.551c-0.847,1.391-1.64,2.976-2.378,4.757v41.183h-16.096V97.354h9.449
		c1.65,0,2.801,0.293,3.453,0.879c0.651,0.586,1.086,1.64,1.303,3.161L307.785,108.952z"/>
	<path fill="#FFFFFF" d="M129.83,320.6h-13.554c-1.521,0-2.759-0.38-3.714-1.14c-0.957-0.76-1.674-1.705-2.15-2.835l-7.038-19.223
		H64.342l-7.037,19.223c-0.349,1-1.021,1.912-2.021,2.737c-1,0.826-2.237,1.238-3.714,1.238H37.886l37.077-94.225h17.855
		L129.83,320.6z M98.878,285.021l-11.469-31.343c-0.565-1.39-1.151-3.04-1.759-4.952c-0.609-1.911-1.217-3.975-1.825-6.19
		c-0.565,2.215-1.151,4.291-1.759,6.223c-0.609,1.934-1.195,3.617-1.76,5.05l-11.404,31.213H98.878z"/>
	<path fill="#FFFFFF" d="M195.708,256.023v5.995c0,1.912-1.151,3.085-3.454,3.519l-5.994,1.107c0.912,2.303,1.367,4.822,1.367,7.559
		c0,3.302-0.662,6.288-1.986,8.959c-1.326,2.672-3.16,4.942-5.507,6.81c-2.346,1.869-5.115,3.313-8.308,4.333
		c-3.193,1.021-6.637,1.531-10.328,1.531c-1.304,0-2.564-0.065-3.779-0.195c-1.217-0.13-2.412-0.304-3.584-0.521
		c-2.086,1.261-3.129,2.672-3.129,4.235c0,1.347,0.619,2.336,1.857,2.965c1.238,0.63,2.877,1.075,4.92,1.335
		c2.041,0.261,4.365,0.424,6.973,0.489c2.606,0.065,5.277,0.207,8.015,0.424c2.737,0.218,5.409,0.598,8.015,1.14
		c2.607,0.544,4.93,1.401,6.973,2.574c2.041,1.173,3.682,2.77,4.92,4.79s1.857,4.617,1.857,7.787c0,2.954-0.729,5.821-2.184,8.602
		c-1.455,2.779-3.562,5.255-6.32,7.428c-2.76,2.172-6.148,3.92-10.166,5.246c-4.018,1.325-8.591,1.987-13.717,1.987
		c-5.039,0-9.426-0.488-13.162-1.466s-6.842-2.281-9.318-3.91c-2.477-1.629-4.322-3.509-5.539-5.637
		c-1.217-2.129-1.824-4.345-1.824-6.646c0-3.128,0.945-5.746,2.834-7.852c1.891-2.107,4.486-3.79,7.787-5.05
		c-1.781-0.912-3.192-2.128-4.234-3.649c-1.043-1.52-1.564-3.519-1.564-5.995c0-0.999,0.184-2.03,0.554-3.095
		c0.368-1.064,0.912-2.118,1.629-3.16c0.717-1.043,1.618-2.03,2.704-2.965c1.086-0.934,2.367-1.77,3.845-2.509
		c-3.388-1.825-6.05-4.257-7.982-7.298c-1.933-3.04-2.899-6.603-2.899-10.687c0-3.301,0.662-6.288,1.987-8.96
		s3.171-4.952,5.539-6.842c2.367-1.89,5.169-3.333,8.405-4.333c3.236-0.999,6.766-1.499,10.59-1.499c2.867,0,5.56,0.293,8.08,0.88
		c2.519,0.586,4.822,1.445,6.906,2.574H195.708z M179.678,323.597c0-1.303-0.391-2.368-1.173-3.193s-1.847-1.466-3.192-1.922
		c-1.348-0.456-2.923-0.792-4.725-1.01c-1.803-0.217-3.715-0.38-5.734-0.489c-2.02-0.108-4.105-0.206-6.256-0.293
		c-2.15-0.086-4.246-0.261-6.288-0.521c-1.782,1-3.226,2.173-4.333,3.519c-1.107,1.346-1.662,2.91-1.662,4.691
		c0,1.173,0.293,2.27,0.88,3.291c0.587,1.02,1.521,1.9,2.802,2.639c1.281,0.738,2.943,1.313,4.985,1.727
		c2.042,0.412,4.538,0.619,7.493,0.619c2.998,0,5.582-0.228,7.755-0.685c2.171-0.456,3.964-1.086,5.376-1.89
		c1.411-0.804,2.443-1.759,3.095-2.867C179.352,326.106,179.678,324.9,179.678,323.597z M161.498,285.542
		c1.997,0,3.735-0.271,5.213-0.814c1.477-0.542,2.703-1.292,3.682-2.248c0.977-0.955,1.715-2.106,2.215-3.454
		c0.499-1.346,0.75-2.823,0.75-4.431c0-3.301-0.988-5.918-2.965-7.852c-1.978-1.932-4.942-2.899-8.895-2.899
		c-3.954,0-6.919,0.967-8.895,2.899c-1.979,1.934-2.965,4.551-2.965,7.852c0,1.564,0.248,3.02,0.748,4.366
		c0.5,1.347,1.238,2.509,2.217,3.486c0.977,0.978,2.215,1.738,3.713,2.281C157.816,285.271,159.543,285.542,161.498,285.542z"/>
	<path fill="#FFFFFF" d="M217.082,289.191c0.262,3.432,0.869,6.397,1.825,8.895c0.955,2.499,2.216,4.562,3.779,6.19
		s3.421,2.846,5.571,3.649c2.15,0.805,4.529,1.206,7.135,1.206c2.607,0,4.855-0.303,6.745-0.912c1.89-0.608,3.54-1.281,4.952-2.02
		c1.411-0.738,2.649-1.411,3.715-2.02c1.063-0.608,2.095-0.912,3.095-0.912c1.347,0,2.346,0.5,2.997,1.499l4.627,5.865
		c-1.781,2.085-3.779,3.834-5.995,5.246c-2.216,1.412-4.528,2.541-6.939,3.388s-4.866,1.444-7.364,1.792
		c-2.498,0.347-4.919,0.521-7.266,0.521c-4.648,0-8.971-0.772-12.967-2.313c-3.997-1.542-7.473-3.822-10.426-6.842
		c-2.955-3.019-5.278-6.755-6.973-11.208c-1.693-4.453-2.541-9.611-2.541-15.476c0-4.562,0.738-8.851,2.215-12.87
		c1.477-4.018,3.595-7.515,6.354-10.491c2.759-2.975,6.125-5.332,10.101-7.07c3.976-1.737,8.46-2.606,13.456-2.606
		c4.213,0,8.102,0.674,11.664,2.02c3.562,1.347,6.624,3.313,9.188,5.897c2.562,2.585,4.572,5.757,6.027,9.514
		c1.455,3.758,2.184,8.047,2.184,12.87c0,2.433-0.261,4.073-0.782,4.92c-0.521,0.847-1.521,1.271-2.997,1.271H217.082z
		 M247.773,279.482c0-2.085-0.293-4.05-0.879-5.897c-0.586-1.846-1.467-3.464-2.639-4.854c-1.174-1.39-2.662-2.486-4.465-3.291
		c-1.803-0.803-3.898-1.206-6.287-1.206c-4.649,0-8.309,1.326-10.98,3.975c-2.672,2.65-4.377,6.408-5.115,11.273H247.773z"/>
	<path fill="#FFFFFF" d="M289.348,261.954c1.346-1.346,2.77-2.596,4.268-3.747c1.498-1.15,3.084-2.128,4.757-2.932
		c1.672-0.803,3.464-1.434,5.376-1.89c1.911-0.457,3.996-0.685,6.256-0.685c3.648,0,6.885,0.619,9.709,1.857
		c2.823,1.238,5.18,2.976,7.07,5.213c1.889,2.238,3.322,4.91,4.301,8.015c0.977,3.106,1.466,6.527,1.466,10.263V320.6h-16.095
		v-42.551c0-4.083-0.936-7.243-2.803-9.481c-1.868-2.237-4.714-3.356-8.536-3.356c-2.78,0-5.387,0.63-7.819,1.89
		c-2.434,1.261-4.735,2.976-6.907,5.148V320.6h-16.095v-66.856h9.84c2.084,0,3.453,0.977,4.104,2.932L289.348,261.954z"/>
	<path fill="#FFFFFF" d="M405.857,223.768V320.6h-9.84c-2.129,0-3.477-0.978-4.04-2.932l-1.368-6.451
		c-2.694,3.085-5.789,5.583-9.285,7.494c-3.498,1.911-7.57,2.867-12.219,2.867c-3.648,0-6.994-0.761-10.035-2.281
		s-5.658-3.725-7.852-6.614c-2.194-2.889-3.889-6.461-5.083-10.719c-1.195-4.257-1.792-9.123-1.792-14.597
		c0-4.952,0.674-9.556,2.02-13.814c1.347-4.257,3.28-7.95,5.801-11.078c2.518-3.127,5.538-5.571,9.057-7.331
		c3.52-1.759,7.472-2.639,11.859-2.639c3.736,0,6.93,0.586,9.579,1.759s5.018,2.759,7.103,4.757v-35.253H405.857z M389.762,270.815
		c-1.824-2.215-3.812-3.779-5.962-4.691c-2.15-0.913-4.464-1.369-6.94-1.369c-2.434,0-4.626,0.456-6.581,1.369
		c-1.954,0.912-3.628,2.292-5.017,4.138c-1.392,1.847-2.455,4.193-3.193,7.038c-0.74,2.846-1.107,6.202-1.107,10.067
		c0,3.91,0.314,7.223,0.944,9.938c0.629,2.715,1.531,4.931,2.704,6.646c1.173,1.716,2.606,2.955,4.301,3.714
		c1.694,0.76,3.584,1.14,5.669,1.14c3.345,0,6.19-0.694,8.536-2.085c2.346-1.39,4.562-3.366,6.646-5.93V270.815z"/>
	<path fill="#FFFFFF" d="M420.191,263.061c7.689-7.038,16.942-10.556,27.76-10.556c3.909,0,7.406,0.642,10.49,1.922
		c3.084,1.282,5.691,3.062,7.82,5.343c2.127,2.281,3.746,5.007,4.854,8.178c1.107,3.172,1.661,6.646,1.661,10.426V320.6h-7.298
		c-1.521,0-2.694-0.228-3.519-0.684c-0.826-0.456-1.478-1.379-1.955-2.77l-1.434-4.822c-1.694,1.521-3.346,2.857-4.952,4.007
		c-1.608,1.151-3.28,2.118-5.018,2.899c-1.738,0.782-3.595,1.379-5.571,1.792c-1.978,0.413-4.16,0.619-6.549,0.619
		c-2.824,0-5.432-0.381-7.82-1.14c-2.389-0.76-4.453-1.9-6.189-3.421c-1.738-1.521-3.086-3.41-4.041-5.669
		c-0.955-2.258-1.434-4.887-1.434-7.885c0-1.694,0.283-3.377,0.848-5.05c0.564-1.672,1.488-3.269,2.77-4.79
		c1.281-1.52,2.942-2.954,4.984-4.301c2.042-1.346,4.551-2.519,7.527-3.519c2.975-0.999,6.439-1.813,10.393-2.444
		c3.953-0.629,8.471-1.01,13.555-1.14v-3.91c0-4.474-0.957-7.787-2.867-9.938c-1.912-2.15-4.671-3.226-8.276-3.226
		c-2.606,0-4.769,0.305-6.483,0.913c-1.717,0.609-3.226,1.293-4.529,2.052c-1.303,0.761-2.486,1.445-3.551,2.053
		c-1.065,0.609-2.248,0.912-3.552,0.912c-1.13,0-2.085-0.293-2.867-0.879s-1.412-1.271-1.89-2.053L420.191,263.061z
		 M457.074,292.059c-4.649,0.218-8.56,0.619-11.73,1.206s-5.713,1.335-7.623,2.248c-1.912,0.912-3.281,1.977-4.105,3.193
		c-0.826,1.217-1.238,2.542-1.238,3.975c0,2.824,0.836,4.844,2.509,6.06c1.672,1.216,3.854,1.824,6.549,1.824
		c3.301,0,6.157-0.597,8.569-1.792c2.41-1.194,4.767-3.007,7.07-5.441V292.059z"/>
</g>
<g>
	<path fill="#D4DEF0" d="M503.395,363.438h-27.303v13.651h-88.736v-13.651h-27.301v13.651h-37.541v170.646h218.426V377.09h-37.545
		V363.438z M482.92,370.264h13.65v20.479h-13.65V370.264z M366.877,370.264h13.656v20.479h-13.656V370.264z M329.336,540.909
		v-129.69h204.775v129.69H329.336z M534.111,383.916v20.477H329.336v-20.477h30.719v13.651h27.301v-13.651h88.736v13.651h27.303
		v-13.651H534.111z"/>
	<path fill="#D4DEF0" d="M353.227,465.826h40.957V424.87h-40.957V465.826z M360.055,431.696h27.301V459h-27.301V431.696z"/>
	<path fill="#D4DEF0" d="M353.227,527.258h40.957v-40.955h-40.957V527.258z M360.055,493.129h27.301v27.303h-27.301V493.129z"/>
	<path fill="#D4DEF0" d="M469.266,465.826h40.957V424.87h-40.957V465.826z M476.092,431.696h27.303V459h-27.303V431.696z"/>
	<path fill="#D4DEF0" d="M469.266,527.258h40.957v-40.955h-40.957V527.258z M476.092,493.129h27.303v27.303h-27.303V493.129z"/>
	<path fill="#D4DEF0" d="M411.246,465.826h40.957V424.87h-40.957V465.826z M418.074,431.696h27.301V459h-27.301V431.696z"/>
	<path fill="#D4DEF0" d="M411.246,527.258h40.957v-40.955h-40.957V527.258z M418.074,493.129h27.301v27.303h-27.301V493.129z"/>
</g>
<g>
</g>
<g>
</g>
<g>
</g>
<g>
</g>
<g>
</g>
<g>
</g>
<g>
</g>
<g>
</g>
<g>
</g>
<g>
</g>
<g>
</g>
</svg>
