<?xml version="1.0" encoding="utf-8"?>
<!-- Generator: Adobe Illustrator 16.0.0, SVG Export Plug-In . SVG Version: 6.00 Build 0)  -->
<!DOCTYPE svg PUBLIC "-//W3C//DTD SVG 1.1//EN" "http://www.w3.org/Graphics/SVG/1.1/DTD/svg11.dtd">
<svg version="1.1" id="Layer_1" xmlns="http://www.w3.org/2000/svg" xmlns:xlink="http://www.w3.org/1999/xlink" x="0px" y="0px"
	 width="70px" height="30px" viewBox="0 0 70 30" enable-background="new 0 0 70 30" xml:space="preserve">
<g>
	<circle fill="none" stroke="#000000" stroke-miterlimit="10" cx="15.25" cy="16.125" r="11.375"/>
	<circle fill="none" stroke="#000000" stroke-miterlimit="10" cx="15.188" cy="16.062" r="3.312"/>
	<path fill="none" stroke="#000000" stroke-miterlimit="10" d="M6.713,23.627c2.326-2.099,5.407-3.377,8.787-3.377
		c3.245,0,6.216,1.178,8.507,3.13"/>
	<path fill="none" stroke="#000000" stroke-miterlimit="10" d="M26.625,17.406c0,0,6.807,2.094,6.807-0.031
		c0-2.195-4.557-2.75-4.557-4.375s2-2.25,4.125-2.375"/>
</g>
<g>
	<circle fill="none" stroke="#000000" stroke-miterlimit="10" cx="52.312" cy="15.188" r="9.312"/>
	<circle fill="none" stroke="#000000" stroke-miterlimit="10" cx="52.188" cy="15.062" r="3.312"/>
	<path fill="none" stroke="#000000" stroke-miterlimit="10" d="M45.358,21.361c2.055-1.335,4.508-2.111,7.142-2.111
		c2.434,0,4.714,0.662,6.668,1.818"/>
	<path fill="none" stroke="#000000" stroke-miterlimit="10" d="M45.432,21.406c0,0-5.119,2.08-5.119-0.045
		c0-2.195,0.685-1.361,0.685-2.986s-2.31-4.125-4.435-4.25"/>
</g>
<g>
</g>
<g>
</g>
<g>
</g>
<g>
</g>
<g>
</g>
<g>
</g>
<g>
</g>
<g>
</g>
<g>
</g>
<g>
</g>
<g>
</g>
<g>
</g>
<g>
</g>
<g>
</g>
<g>
</g>
</svg>
