<?xml version="1.0" encoding="utf-8"?>
<!-- Generator: Adobe Illustrator 16.0.0, SVG Export Plug-In . SVG Version: 6.00 Build 0)  -->
<!DOCTYPE svg PUBLIC "-//W3C//DTD SVG 1.1//EN" "http://www.w3.org/Graphics/SVG/1.1/DTD/svg11.dtd">
<svg version="1.1" id="Layer_1" xmlns="http://www.w3.org/2000/svg" xmlns:xlink="http://www.w3.org/1999/xlink" x="0px" y="0px"
	 width="250px" height="250px" viewBox="0 0 250 250" enable-background="new 0 0 250 250" xml:space="preserve">
<g>
	<path opacity="0.5" enable-background="new    " d="M122,21H23c-6.627,0-12,5.373-12,12v182c0,6.627,5.373,12,12,12h99
		c6.627,0,12-5.373,12-12V33C134,26.373,128.627,21,122,21z M87.32,113.112c-0.561,1.424-1.408,2.648-2.544,3.672
		c-1.137,1.024-2.568,1.82-4.296,2.388c-1.729,0.568-3.753,0.852-6.072,0.852h-4.561V132h-7.199V97.176h11.76
		c2.384,0,4.443,0.28,6.18,0.84c1.737,0.56,3.164,1.34,4.284,2.34s1.947,2.188,2.484,3.564c0.535,1.376,0.804,2.872,0.804,4.488
		C88.16,110.12,87.88,111.688,87.32,113.112z"/>
	<path opacity="0.5" enable-background="new    " d="M79.339,104.22c-0.536-0.504-1.212-0.892-2.028-1.164
		c-0.815-0.272-1.784-0.408-2.903-0.408h-4.561v11.856h4.561c2.256,0,3.907-0.543,4.956-1.632c1.048-1.088,1.571-2.576,1.571-4.464
		c0-0.864-0.132-1.652-0.396-2.364S79.875,104.724,79.339,104.22z"/>
</g>
<path opacity="0.5" enable-background="new    " d="M226,21h-69c-6.627,0-12,5.373-12,12v72c0,6.627,5.373,12,12,12h69
	c6.627,0,12-5.373,12-12V33C238,26.373,232.627,21,226,21z M211.048,88h-6.358V66.616c0-0.448,0.012-0.928,0.035-1.44
	c0.023-0.512,0.067-1.032,0.133-1.56l-9.961,18.888c-0.545,1.041-1.385,1.56-2.521,1.56h-1.008c-0.562,0-1.058-0.132-1.488-0.396
	s-0.776-0.652-1.032-1.164l-10.008-18.96c0.049,0.561,0.088,1.1,0.12,1.62s0.048,1.004,0.048,1.452V88h-6.359V53.176h5.473
	c0.304,0,0.576,0.008,0.814,0.024c0.24,0.016,0.453,0.06,0.638,0.132c0.184,0.072,0.352,0.184,0.504,0.336
	c0.151,0.152,0.3,0.364,0.442,0.636l9.744,18.576c0.305,0.561,0.588,1.136,0.854,1.728c0.264,0.592,0.516,1.2,0.756,1.824
	c0.24-0.64,0.492-1.264,0.756-1.872s0.548-1.192,0.854-1.752l9.672-18.504c0.144-0.272,0.296-0.484,0.455-0.636
	c0.16-0.152,0.332-0.264,0.517-0.336c0.185-0.072,0.392-0.116,0.624-0.132c0.23-0.016,0.508-0.024,0.828-0.024h5.47V88z"/>
<path opacity="0.5" enable-background="new    " d="M226,131h-69c-6.627,0-12,5.373-12,12v72c0,6.627,5.373,12,12,12h69
	c6.627,0,12-5.373,12-12v-72C238,136.373,232.627,131,226,131z M156,147.5h61v3.667h-61V147.5z M156,187.39v-3.667h61v3.667H156z
	 M229,205.5h-61v-3.666h61V205.5z M229,169.278h-61v-3.667h61V169.278z"/>
</svg>
