<?xml version="1.0" encoding="utf-8"?>
<!-- Generator: Adobe Illustrator 16.0.0, SVG Export Plug-In . SVG Version: 6.00 Build 0)  -->
<!DOCTYPE svg PUBLIC "-//W3C//DTD SVG 1.1//EN" "http://www.w3.org/Graphics/SVG/1.1/DTD/svg11.dtd">
<svg version="1.1" id="Capa_1" xmlns="http://www.w3.org/2000/svg" xmlns:xlink="http://www.w3.org/1999/xlink" x="0px" y="0px"
	 width="560px" height="560px" viewBox="204.5 0 560 560" enable-background="new 204.5 0 560 560" xml:space="preserve">
<g>
	<g>
		<path d="M545.398,21.801h-65.401v40.875h44.963v76.982c0,67.616-55.013,122.628-122.628,122.628S279.705,207.275,279.705,139.66
			V62.676h43.601V21.801h-64.039c-11.289,0-20.438,9.149-20.438,20.438v97.421c0,90.159,73.345,163.503,163.504,163.503
			s163.503-73.344,163.503-163.503V42.238C565.836,30.95,556.688,21.801,545.398,21.801z"/>
	</g>
</g>
<g>
	<g>
		<path d="M625.105,320.194v96.74c0,56.348-45.842,102.189-102.19,102.189c-56.348,0-102.19-45.842-102.19-102.189V283.406H379.85
			v133.528C379.85,495.817,444.024,560,522.915,560c78.884,0,143.066-64.183,143.066-143.065v-96.74H625.105L625.105,320.194z"/>
	</g>
</g>
<g>
	<g>
		<path d="M645.551,188.029c-41.707,0-75.627,33.92-75.627,75.621c0,41.694,33.92,75.621,75.621,75.621
			c41.7,0,75.62-33.927,75.627-75.621C721.171,221.949,687.245,188.029,645.551,188.029z M645.545,298.395
			c-19.164,0-34.752-15.587-34.752-34.744c0-19.157,15.587-34.744,34.752-34.744c19.156,0,34.744,15.587,34.744,34.744
			C680.289,282.808,664.701,298.395,645.545,298.395z"/>
	</g>
</g>
<g>
	<g>
		<path d="M322.625,0c-11.289,0-20.438,9.149-20.438,20.438v43.601c0,11.289,9.149,20.438,20.438,20.438s20.438-9.149,20.438-20.438
			V20.438C343.062,9.149,333.913,0,322.625,0z"/>
	</g>
</g>
<g>
	<g>
		<path d="M480.678,0C469.39,0,460.24,9.149,460.24,20.438v43.601c0,11.289,9.149,20.438,20.438,20.438
			c11.289,0,20.438-9.149,20.438-20.438V20.438C501.116,9.149,491.967,0,480.678,0z"/>
	</g>
</g>
</svg>
