<?xml version="1.0" encoding="utf-8"?>
<!-- Generator: Adobe Illustrator 16.0.0, SVG Export Plug-In . SVG Version: 6.00 Build 0)  -->
<!DOCTYPE svg PUBLIC "-//W3C//DTD SVG 1.1//EN" "http://www.w3.org/Graphics/SVG/1.1/DTD/svg11.dtd">
<svg version="1.1" id="Layer_1" xmlns="http://www.w3.org/2000/svg" xmlns:xlink="http://www.w3.org/1999/xlink" x="0px" y="0px"
	 width="560px" height="560px" viewBox="0 0 560 560" enable-background="new 0 0 560 560" xml:space="preserve">
<g>
	<line fill="none" stroke="#000000" stroke-width="16" stroke-miterlimit="10" x1="68" y1="148" x2="499" y2="148"/>
	<g>
		<path stroke="#000000" stroke-width="16" stroke-miterlimit="10" d="M68,152.5c32.697,0,65.394,0,98.09,0
			c64.142,0,128.284,0,192.425,0c44.664,0,89.328,0,133.991,0c2.165,0,4.329,0,6.493,0c6.448,0,6.448-10,0-10
			c-32.697,0-65.394,0-98.091,0c-64.143,0-128.283,0-192.425,0c-44.664,0-89.328,0-133.991,0c-2.164,0-4.329,0-6.493,0
			C61.551,142.5,61.551,152.5,68,152.5L68,152.5z"/>
	</g>
</g>
<g>
	<line fill="none" stroke="#000000" stroke-width="16" stroke-miterlimit="10" x1="68" y1="260" x2="499" y2="260"/>
	<g>
		<path stroke="#000000" stroke-width="16" stroke-miterlimit="10" d="M68,264.5c32.697,0,65.394,0,98.09,0
			c64.142,0,128.284,0,192.425,0c44.664,0,89.328,0,133.991,0c2.165,0,4.329,0,6.493,0c6.448,0,6.448-10,0-10
			c-32.697,0-65.394,0-98.091,0c-64.143,0-128.283,0-192.425,0c-44.664,0-89.328,0-133.991,0c-2.164,0-4.329,0-6.493,0
			C61.551,254.5,61.551,264.5,68,264.5L68,264.5z"/>
	</g>
</g>
<g>
	<line fill="none" stroke="#000000" stroke-width="16" stroke-miterlimit="10" x1="68" y1="371" x2="499" y2="371"/>
	<g>
		<path stroke="#000000" stroke-width="16" stroke-miterlimit="10" d="M68,375.5c32.697,0,65.394,0,98.09,0
			c64.142,0,128.284,0,192.425,0c44.664,0,89.328,0,133.991,0c2.165,0,4.329,0,6.493,0c6.448,0,6.448-10,0-10
			c-32.697,0-65.394,0-98.091,0c-64.143,0-128.283,0-192.425,0c-44.664,0-89.328,0-133.991,0c-2.164,0-4.329,0-6.493,0
			C61.551,365.5,61.551,375.5,68,375.5L68,375.5z"/>
	</g>
</g>
<circle stroke="#000000" stroke-width="10" stroke-miterlimit="10" cx="163.537" cy="147.415" r="28.26"/>
<circle stroke="#000000" stroke-width="10" stroke-miterlimit="10" cx="418.537" cy="259.5" r="28.26"/>
<circle stroke="#000000" stroke-width="10" stroke-miterlimit="10" cx="266.537" cy="371" r="28.26"/>
</svg>
