<?xml version="1.0" encoding="utf-8"?>
<!-- Generator: Adobe Illustrator 16.0.0, SVG Export Plug-In . SVG Version: 6.00 Build 0)  -->
<!DOCTYPE svg PUBLIC "-//W3C//DTD SVG 1.1//EN" "http://www.w3.org/Graphics/SVG/1.1/DTD/svg11.dtd">
<svg version="1.1" xmlns="http://www.w3.org/2000/svg" xmlns:xlink="http://www.w3.org/1999/xlink" x="0px" y="0px" width="600px"
	 height="600px" viewBox="0 0 600 600" enable-background="new 0 0 600 600" xml:space="preserve">
<g id="Bot_2">
	<g display="inline">
		<g>
			<linearGradient id="XMLID_12_" gradientUnits="userSpaceOnUse" x1="36.04" y1="-235.9814" x2="551.7505" y2="792.2766">
				<stop  offset="0.0538" style="stop-color:#4A00E0"/>
				<stop  offset="1" style="stop-color:#8A2387"/>
			</linearGradient>
			<rect id="XMLID_915_" x="-4.721" y="-34.368" fill="url(#XMLID_12_)" width="609.297" height="649.085"/>
			<g id="XMLID_664_">
				<defs>
					<rect id="XMLID_665_" x="-4.576" y="-34.204" width="609.297" height="649.086"/>
				</defs>
				<clipPath id="XMLID_13_">
					<use xlink:href="#XMLID_665_"  overflow="visible"/>
				</clipPath>
				<g id="XMLID_666_" clip-path="url(#XMLID_13_)">
					<polygon id="XMLID_4_" opacity="0" fill="none" stroke="#FFFFFF" stroke-width="0.9804" stroke-miterlimit="10" points="
						604.721,290.338 537.506,340.97 470.291,290.338 537.506,239.708 					"/>
					<polygon opacity="0.0323" fill="none" stroke="#FFFFFF" stroke-width="1.1069" stroke-miterlimit="10" points="
						634.468,290.338 537.506,363.376 440.545,290.338 537.506,217.302 					"/>
					<polygon opacity="0.0645" fill="none" stroke="#FFFFFF" stroke-width="1.2334" stroke-miterlimit="10" points="
						664.215,290.338 537.506,385.783 410.797,290.338 537.506,194.895 					"/>
					<polygon opacity="0.0968" fill="none" stroke="#FFFFFF" stroke-width="1.3599" stroke-miterlimit="10" points="
						693.962,290.338 537.506,408.19 381.05,290.338 537.506,172.488 					"/>
					<polygon opacity="0.129" fill="none" stroke="#FFFFFF" stroke-width="1.4864" stroke-miterlimit="10" points="723.709,290.338 
						537.506,430.597 351.303,290.338 537.506,150.081 					"/>
					<polygon opacity="0.1613" fill="none" stroke="#FFFFFF" stroke-width="1.6129" stroke-miterlimit="10" points="
						753.457,290.338 537.506,453.004 321.556,290.338 537.506,127.674 					"/>
					<polygon opacity="0.1935" fill="none" stroke="#FFFFFF" stroke-width="1.7394" stroke-miterlimit="10" points="
						783.204,290.338 537.506,475.411 291.809,290.338 537.506,105.267 					"/>
					<polygon opacity="0.2258" fill="none" stroke="#FFFFFF" stroke-width="1.8659" stroke-miterlimit="10" points="
						812.951,290.338 537.506,497.818 262.061,290.338 537.506,82.86 					"/>
					<polygon opacity="0.2581" fill="none" stroke="#FFFFFF" stroke-width="1.9924" stroke-miterlimit="10" points="
						842.698,290.339 537.506,520.225 232.313,290.339 537.506,60.453 					"/>
					<polygon opacity="0.2903" fill="none" stroke="#FFFFFF" stroke-width="2.1189" stroke-miterlimit="10" points="
						872.445,290.339 537.506,542.632 202.566,290.339 537.506,38.047 					"/>
					<polygon opacity="0.3226" fill="none" stroke="#FFFFFF" stroke-width="2.2454" stroke-miterlimit="10" points="
						902.192,290.339 537.506,565.039 172.819,290.339 537.506,15.639 					"/>
					<polygon opacity="0.3548" fill="none" stroke="#FFFFFF" stroke-width="2.3719" stroke-miterlimit="10" points="
						931.939,290.338 537.506,587.445 143.072,290.338 537.506,-6.768 					"/>
					<polygon opacity="0.3871" fill="none" stroke="#FFFFFF" stroke-width="2.4984" stroke-miterlimit="10" points="
						961.688,290.339 537.506,609.853 113.324,290.339 537.506,-29.175 					"/>
					<polygon opacity="0.4194" fill="none" stroke="#FFFFFF" stroke-width="2.6249" stroke-miterlimit="10" points="
						991.435,290.339 537.506,632.26 83.578,290.339 537.506,-51.581 					"/>
					<polygon opacity="0.4516" fill="none" stroke="#FFFFFF" stroke-width="2.7514" stroke-miterlimit="10" points="
						1021.182,290.339 537.506,654.666 53.83,290.339 537.506,-73.989 					"/>
					<polygon opacity="0.4839" fill="none" stroke="#FFFFFF" stroke-width="2.8779" stroke-miterlimit="10" points="
						1050.929,290.338 537.506,677.073 24.082,290.338 537.506,-96.396 					"/>
					<polygon opacity="0.5161" fill="none" stroke="#FFFFFF" stroke-width="3.0044" stroke-miterlimit="10" points="
						1080.676,290.338 537.506,699.48 -5.664,290.338 537.506,-118.803 					"/>
					<polygon opacity="0.5484" fill="none" stroke="#FFFFFF" stroke-width="3.1309" stroke-miterlimit="10" points="
						1110.424,290.338 537.506,721.887 -35.412,290.338 537.506,-141.21 					"/>
					<polygon opacity="0.5806" fill="none" stroke="#FFFFFF" stroke-width="3.2574" stroke-miterlimit="10" points="
						1140.17,290.339 537.506,744.294 -65.159,290.339 537.506,-163.616 					"/>
					<polygon opacity="0.6129" fill="none" stroke="#FFFFFF" stroke-width="3.3839" stroke-miterlimit="10" points="
						1169.918,290.338 537.506,766.7 -94.906,290.338 537.506,-186.023 					"/>
					<polygon opacity="0.6452" fill="none" stroke="#FFFFFF" stroke-width="3.5104" stroke-miterlimit="10" points="
						1199.665,290.339 537.506,789.108 -124.653,290.339 537.506,-208.431 					"/>
					<polygon opacity="0.6774" fill="none" stroke="#FFFFFF" stroke-width="3.6369" stroke-miterlimit="10" points="
						1229.412,290.338 537.506,811.515 -154.4,290.338 537.506,-230.838 					"/>
					<polygon opacity="0.7097" fill="none" stroke="#FFFFFF" stroke-width="3.7634" stroke-miterlimit="10" points="
						1259.16,290.338 537.506,833.922 -184.148,290.338 537.506,-253.245 					"/>
					<polygon opacity="0.7419" fill="none" stroke="#FFFFFF" stroke-width="3.8899" stroke-miterlimit="10" points="
						1288.907,290.338 537.506,856.328 -213.895,290.338 537.506,-275.651 					"/>
					<polygon opacity="0.7742" fill="none" stroke="#FFFFFF" stroke-width="4.0164" stroke-miterlimit="10" points="
						1318.654,290.338 537.506,878.735 -243.643,290.338 537.506,-298.058 					"/>
					<polygon opacity="0.8065" fill="none" stroke="#FFFFFF" stroke-width="4.1429" stroke-miterlimit="10" points="
						1348.401,290.338 537.506,901.143 -273.39,290.338 537.506,-320.465 					"/>
					<polygon opacity="0.8387" fill="none" stroke="#FFFFFF" stroke-width="4.2694" stroke-miterlimit="10" points="
						1378.148,290.338 537.506,923.55 -303.137,290.338 537.506,-342.873 					"/>
					<polygon opacity="0.871" fill="none" stroke="#FFFFFF" stroke-width="4.3959" stroke-miterlimit="10" points="
						1407.896,290.338 537.506,945.956 -332.885,290.338 537.506,-365.279 					"/>
					<polygon opacity="0.9032" fill="none" stroke="#FFFFFF" stroke-width="4.5224" stroke-miterlimit="10" points="
						1437.644,290.338 537.506,968.363 -362.631,290.338 537.506,-387.687 					"/>
					<polygon opacity="0.9355" fill="none" stroke="#FFFFFF" stroke-width="4.6489" stroke-miterlimit="10" points="
						1467.391,290.338 537.506,990.77 -392.379,290.338 537.506,-410.093 					"/>
					<polygon opacity="0.9677" fill="none" stroke="#FFFFFF" stroke-width="4.7754" stroke-miterlimit="10" points="
						1497.138,290.338 537.506,1013.177 -422.126,290.338 537.506,-432.5 					"/>
					<polygon id="XMLID_3_" fill="none" stroke="#FFFFFF" stroke-width="4.9019" stroke-miterlimit="10" points="1526.885,290.338 
						537.506,1035.584 -451.873,290.338 537.506,-454.907 					"/>
				</g>
			</g>
			<g id="XMLID_576_">
				<defs>
					<rect id="XMLID_577_" x="-4.576" y="-34.204" width="609.297" height="649.086"/>
				</defs>
				<clipPath id="XMLID_14_">
					<use xlink:href="#XMLID_577_"  overflow="visible"/>
				</clipPath>
				<g id="XMLID_578_" clip-path="url(#XMLID_14_)">
					<polygon id="XMLID_2_" opacity="0" fill="none" stroke="#FFFFFF" stroke-width="0.9804" stroke-miterlimit="10" points="
						604.721,290.338 537.506,340.97 470.291,290.338 537.506,239.708 					"/>
					<polygon opacity="0.0323" fill="none" stroke="#FFFFFF" stroke-width="1.1069" stroke-miterlimit="10" points="
						634.468,290.338 537.506,363.376 440.545,290.338 537.506,217.302 					"/>
					<polygon opacity="0.0645" fill="none" stroke="#FFFFFF" stroke-width="1.2334" stroke-miterlimit="10" points="
						664.215,290.338 537.506,385.783 410.797,290.338 537.506,194.895 					"/>
					<polygon opacity="0.0968" fill="none" stroke="#FFFFFF" stroke-width="1.3599" stroke-miterlimit="10" points="
						693.962,290.338 537.506,408.19 381.05,290.338 537.506,172.488 					"/>
					<polygon opacity="0.129" fill="none" stroke="#FFFFFF" stroke-width="1.4864" stroke-miterlimit="10" points="723.709,290.338 
						537.506,430.597 351.303,290.338 537.506,150.081 					"/>
					<polygon opacity="0.1613" fill="none" stroke="#FFFFFF" stroke-width="1.6129" stroke-miterlimit="10" points="
						753.457,290.338 537.506,453.004 321.556,290.338 537.506,127.674 					"/>
					<polygon opacity="0.1935" fill="none" stroke="#FFFFFF" stroke-width="1.7394" stroke-miterlimit="10" points="
						783.204,290.338 537.506,475.411 291.809,290.338 537.506,105.267 					"/>
					<polygon opacity="0.2258" fill="none" stroke="#FFFFFF" stroke-width="1.8659" stroke-miterlimit="10" points="
						812.951,290.338 537.506,497.818 262.061,290.338 537.506,82.86 					"/>
					<polygon opacity="0.2581" fill="none" stroke="#FFFFFF" stroke-width="1.9924" stroke-miterlimit="10" points="
						842.698,290.339 537.506,520.225 232.313,290.339 537.506,60.453 					"/>
					<polygon opacity="0.2903" fill="none" stroke="#FFFFFF" stroke-width="2.1189" stroke-miterlimit="10" points="
						872.445,290.339 537.506,542.632 202.566,290.339 537.506,38.047 					"/>
					<polygon opacity="0.3226" fill="none" stroke="#FFFFFF" stroke-width="2.2454" stroke-miterlimit="10" points="
						902.192,290.339 537.506,565.039 172.819,290.339 537.506,15.639 					"/>
					<polygon opacity="0.3548" fill="none" stroke="#FFFFFF" stroke-width="2.3719" stroke-miterlimit="10" points="
						931.939,290.338 537.506,587.445 143.072,290.338 537.506,-6.768 					"/>
					<polygon opacity="0.3871" fill="none" stroke="#FFFFFF" stroke-width="2.4984" stroke-miterlimit="10" points="
						961.688,290.339 537.506,609.853 113.324,290.339 537.506,-29.175 					"/>
					<polygon opacity="0.4194" fill="none" stroke="#FFFFFF" stroke-width="2.6249" stroke-miterlimit="10" points="
						991.435,290.339 537.506,632.26 83.578,290.339 537.506,-51.581 					"/>
					<polygon opacity="0.4516" fill="none" stroke="#FFFFFF" stroke-width="2.7514" stroke-miterlimit="10" points="
						1021.182,290.339 537.506,654.666 53.83,290.339 537.506,-73.989 					"/>
					<polygon opacity="0.4839" fill="none" stroke="#FFFFFF" stroke-width="2.8779" stroke-miterlimit="10" points="
						1050.929,290.338 537.506,677.073 24.082,290.338 537.506,-96.396 					"/>
					<polygon opacity="0.5161" fill="none" stroke="#FFFFFF" stroke-width="3.0044" stroke-miterlimit="10" points="
						1080.676,290.338 537.506,699.48 -5.664,290.338 537.506,-118.803 					"/>
					<polygon opacity="0.5484" fill="none" stroke="#FFFFFF" stroke-width="3.1309" stroke-miterlimit="10" points="
						1110.424,290.338 537.506,721.887 -35.412,290.338 537.506,-141.21 					"/>
					<polygon opacity="0.5806" fill="none" stroke="#FFFFFF" stroke-width="3.2574" stroke-miterlimit="10" points="
						1140.17,290.339 537.506,744.294 -65.159,290.339 537.506,-163.616 					"/>
					<polygon opacity="0.6129" fill="none" stroke="#FFFFFF" stroke-width="3.3839" stroke-miterlimit="10" points="
						1169.918,290.338 537.506,766.7 -94.906,290.338 537.506,-186.023 					"/>
					<polygon opacity="0.6452" fill="none" stroke="#FFFFFF" stroke-width="3.5104" stroke-miterlimit="10" points="
						1199.665,290.339 537.506,789.108 -124.653,290.339 537.506,-208.431 					"/>
					<polygon opacity="0.6774" fill="none" stroke="#FFFFFF" stroke-width="3.6369" stroke-miterlimit="10" points="
						1229.412,290.338 537.506,811.515 -154.4,290.338 537.506,-230.838 					"/>
					<polygon opacity="0.7097" fill="none" stroke="#FFFFFF" stroke-width="3.7634" stroke-miterlimit="10" points="
						1259.16,290.338 537.506,833.922 -184.148,290.338 537.506,-253.245 					"/>
					<polygon opacity="0.7419" fill="none" stroke="#FFFFFF" stroke-width="3.8899" stroke-miterlimit="10" points="
						1288.907,290.338 537.506,856.328 -213.895,290.338 537.506,-275.651 					"/>
					<polygon opacity="0.7742" fill="none" stroke="#FFFFFF" stroke-width="4.0164" stroke-miterlimit="10" points="
						1318.654,290.338 537.506,878.735 -243.643,290.338 537.506,-298.058 					"/>
					<polygon opacity="0.8065" fill="none" stroke="#FFFFFF" stroke-width="4.1429" stroke-miterlimit="10" points="
						1348.401,290.338 537.506,901.143 -273.39,290.338 537.506,-320.465 					"/>
					<polygon opacity="0.8387" fill="none" stroke="#FFFFFF" stroke-width="4.2694" stroke-miterlimit="10" points="
						1378.148,290.338 537.506,923.55 -303.137,290.338 537.506,-342.873 					"/>
					<polygon opacity="0.871" fill="none" stroke="#FFFFFF" stroke-width="4.3959" stroke-miterlimit="10" points="
						1407.896,290.338 537.506,945.956 -332.885,290.338 537.506,-365.279 					"/>
					<polygon opacity="0.9032" fill="none" stroke="#FFFFFF" stroke-width="4.5224" stroke-miterlimit="10" points="
						1437.644,290.338 537.506,968.363 -362.631,290.338 537.506,-387.687 					"/>
					<polygon opacity="0.9355" fill="none" stroke="#FFFFFF" stroke-width="4.6489" stroke-miterlimit="10" points="
						1467.391,290.338 537.506,990.77 -392.379,290.338 537.506,-410.093 					"/>
					<polygon opacity="0.9677" fill="none" stroke="#FFFFFF" stroke-width="4.7754" stroke-miterlimit="10" points="
						1497.138,290.338 537.506,1013.177 -422.126,290.338 537.506,-432.5 					"/>
					<polygon id="XMLID_1_" fill="none" stroke="#FFFFFF" stroke-width="4.9019" stroke-miterlimit="10" points="1526.885,290.338 
						537.506,1035.584 -451.873,290.338 537.506,-454.907 					"/>
				</g>
			</g>
		</g>
	</g>
	<g display="inline">
		<path fill="#FFFFFF" d="M110.176,160.21h-11.1c-1.245,0-2.259-0.311-3.041-0.934c-0.783-0.622-1.369-1.396-1.761-2.321
			l-5.763-15.741H56.551l-5.764,15.741c-0.285,0.819-0.836,1.566-1.654,2.241c-0.818,0.676-1.832,1.014-3.041,1.014H34.887
			l30.361-77.156h14.619L110.176,160.21z M84.83,131.076l-9.391-25.665c-0.463-1.138-0.943-2.49-1.441-4.056
			c-0.498-1.564-0.996-3.254-1.494-5.069c-0.463,1.814-0.942,3.513-1.44,5.096c-0.499,1.583-0.979,2.961-1.44,4.135l-9.338,25.559
			H84.83z"/>
		<path fill="#FFFFFF" d="M129.171,112.188c2.205-2.312,4.65-4.153,7.337-5.522c2.686-1.369,5.753-2.055,9.204-2.055
			c3.165,0,6.021,0.623,8.563,1.868c2.543,1.246,4.713,3.033,6.51,5.363c1.797,2.33,3.176,5.149,4.136,8.457s1.44,7.026,1.44,11.152
			c0,4.447-0.552,8.484-1.654,12.112s-2.677,6.732-4.722,9.311c-2.046,2.58-4.509,4.581-7.39,6.003
			c-2.882,1.422-6.084,2.134-9.605,2.134c-1.707,0-3.254-0.169-4.643-0.507c-1.387-0.337-2.668-0.809-3.842-1.414
			c-1.174-0.604-2.25-1.342-3.228-2.214c-0.979-0.871-1.913-1.841-2.802-2.908l-0.586,3.682c-0.214,0.925-0.579,1.583-1.094,1.974
			c-0.517,0.392-1.22,0.587-2.108,0.587h-8.697V80.919h13.18V112.188z M129.171,146.017c1.493,1.814,3.121,3.095,4.882,3.842
			c1.762,0.747,3.619,1.121,5.576,1.121c2.027,0,3.85-0.364,5.469-1.094c1.619-0.729,2.997-1.868,4.136-3.415
			c1.138-1.547,2.009-3.521,2.614-5.923c0.605-2.401,0.907-5.273,0.907-8.617c0-6.011-0.996-10.36-2.987-13.046
			c-1.993-2.685-4.855-4.028-8.592-4.028c-2.525,0-4.73,0.579-6.615,1.734c-1.887,1.157-3.683,2.784-5.39,4.882V146.017z"/>
		<path fill="#FFFFFF" d="M188.984,114.962c1.707-3.272,3.734-5.843,6.082-7.71c2.349-1.868,5.123-2.801,8.324-2.801
			c2.525,0,4.553,0.552,6.083,1.654l-0.854,9.872c-0.179,0.64-0.437,1.094-0.774,1.36c-0.338,0.267-0.791,0.4-1.359,0.4
			c-0.534,0-1.326-0.088-2.375-0.267c-1.05-0.177-2.072-0.267-3.068-0.267c-1.459,0-2.757,0.213-3.895,0.64
			c-1.139,0.427-2.162,1.041-3.068,1.841c-0.907,0.801-1.707,1.77-2.401,2.908c-0.693,1.139-1.343,2.437-1.947,3.895v33.723h-13.18
			v-54.746h7.737c1.352,0,2.294,0.24,2.828,0.72c0.533,0.48,0.889,1.343,1.066,2.588L188.984,114.962z"/>
		<path fill="#FFFFFF" d="M231.829,89.51c0,1.139-0.231,2.206-0.693,3.201c-0.463,0.997-1.076,1.868-1.841,2.615
			c-0.766,0.747-1.664,1.343-2.695,1.788c-1.031,0.445-2.134,0.667-3.308,0.667c-1.139,0-2.214-0.222-3.228-0.667
			c-1.015-0.444-1.895-1.041-2.643-1.788c-0.746-0.747-1.342-1.618-1.787-2.615c-0.445-0.995-0.666-2.062-0.666-3.201
			c0-1.174,0.221-2.276,0.666-3.308s1.041-1.921,1.787-2.668c0.748-0.747,1.628-1.342,2.643-1.788
			c1.014-0.444,2.089-0.667,3.228-0.667c1.174,0,2.276,0.223,3.308,0.667c1.031,0.445,1.93,1.041,2.695,1.788
			c0.765,0.747,1.378,1.636,1.841,2.668C231.598,87.234,231.829,88.336,231.829,89.51z M230.016,105.464v54.746h-13.233v-54.746
			H230.016z"/>
		<path fill="#FFFFFF" d="M255.895,114.962c1.707-3.272,3.734-5.843,6.082-7.71c2.348-1.868,5.123-2.801,8.324-2.801
			c2.525,0,4.553,0.552,6.082,1.654l-0.854,9.872c-0.178,0.64-0.436,1.094-0.773,1.36c-0.338,0.267-0.792,0.4-1.36,0.4
			c-0.534,0-1.325-0.088-2.374-0.267c-1.051-0.177-2.073-0.267-3.068-0.267c-1.459,0-2.758,0.213-3.896,0.64
			c-1.139,0.427-2.161,1.041-3.067,1.841c-0.908,0.801-1.708,1.77-2.402,2.908c-0.693,1.139-1.343,2.437-1.947,3.895v33.723h-13.18
			v-54.746h7.737c1.352,0,2.294,0.24,2.828,0.72c0.534,0.48,0.889,1.343,1.067,2.588L255.895,114.962z"/>
		<path fill="#FFFFFF" d="M58.471,222.533v21.396h27v11.045h-27v21.823h34.256v11.472H44.064v-77.156h48.662v11.419H58.471z"/>
		<path fill="#FFFFFF" d="M152.221,288.27h-12.699c-0.96,0-1.733-0.249-2.32-0.747c-0.587-0.498-1.076-1.067-1.467-1.708
			l-11.58-19.049c-0.178,0.605-0.382,1.174-0.613,1.708s-0.489,1.032-0.773,1.494l-10.244,15.847
			c-0.393,0.605-0.873,1.166-1.441,1.681c-0.569,0.516-1.28,0.774-2.135,0.774H97.156l18.781-28.227l-18.035-26.519h12.699
			c0.961,0,1.672,0.133,2.135,0.4c0.462,0.267,0.871,0.703,1.227,1.308l11.473,18.249c0.391-1.209,0.941-2.401,1.654-3.575
			l9.23-14.407c0.782-1.315,1.797-1.974,3.041-1.974h12.113l-17.982,25.932L152.221,288.27z"/>
		<path fill="#FFFFFF" d="M171.535,240.995c2.242-2.525,4.784-4.571,7.631-6.136c2.846-1.565,6.189-2.348,10.031-2.348
			c2.988,0,5.718,0.623,8.19,1.867c2.472,1.246,4.606,3.051,6.403,5.416c1.795,2.366,3.184,5.283,4.162,8.751
			c0.978,3.468,1.467,7.443,1.467,11.925c0,4.091-0.552,7.879-1.654,11.365c-1.103,3.487-2.677,6.51-4.722,9.071
			c-2.046,2.561-4.519,4.562-7.417,6.002c-2.9,1.441-6.146,2.161-9.738,2.161c-3.06,0-5.674-0.472-7.844-1.414
			c-2.17-0.942-4.108-2.249-5.815-3.922v22.411h-13.18v-72.621h8.058c1.707,0,2.828,0.8,3.361,2.401L171.535,240.995z
			 M172.229,274.077c1.493,1.814,3.121,3.095,4.882,3.842c1.762,0.747,3.673,1.121,5.736,1.121c1.992,0,3.789-0.374,5.389-1.121
			c1.602-0.747,2.962-1.885,4.082-3.415c1.121-1.529,1.982-3.459,2.588-5.789c0.605-2.33,0.907-5.078,0.907-8.244
			c0-3.201-0.259-5.914-0.773-8.137c-0.517-2.223-1.254-4.028-2.214-5.416c-0.961-1.388-2.127-2.401-3.496-3.042
			c-1.369-0.641-2.926-0.96-4.668-0.96c-2.74,0-5.069,0.579-6.99,1.734c-1.921,1.157-3.735,2.784-5.442,4.882V274.077z"/>
		<path fill="#FFFFFF" d="M229.803,262.551c0.213,2.811,0.711,5.238,1.494,7.283c0.781,2.046,1.814,3.735,3.095,5.069
			s2.802,2.33,4.562,2.988c1.762,0.659,3.709,0.987,5.844,0.987c2.134,0,3.975-0.249,5.521-0.747
			c1.548-0.498,2.899-1.049,4.056-1.654c1.155-0.604,2.169-1.156,3.042-1.654c0.871-0.498,1.715-0.747,2.534-0.747
			c1.103,0,1.921,0.409,2.454,1.227l3.789,4.802c-1.459,1.708-3.096,3.14-4.909,4.295c-1.814,1.157-3.708,2.081-5.683,2.775
			c-1.975,0.693-3.984,1.182-6.029,1.467c-2.047,0.284-4.029,0.427-5.949,0.427c-3.808,0-7.347-0.632-10.619-1.894
			c-3.273-1.262-6.119-3.13-8.537-5.603c-2.42-2.472-4.322-5.531-5.709-9.178c-1.388-3.646-2.082-7.871-2.082-12.673
			c0-3.735,0.605-7.248,1.814-10.538c1.209-3.29,2.943-6.154,5.203-8.591c2.258-2.436,5.016-4.366,8.27-5.789
			c3.256-1.422,6.928-2.135,11.02-2.135c3.449,0,6.634,0.552,9.551,1.654c2.916,1.103,5.424,2.713,7.523,4.829
			c2.099,2.117,3.744,4.714,4.936,7.79c1.191,3.078,1.787,6.59,1.787,10.539c0,1.993-0.213,3.335-0.64,4.028
			c-0.427,0.694-1.245,1.041-2.454,1.041H229.803z M254.935,254.601c0-1.708-0.24-3.317-0.721-4.829
			c-0.479-1.512-1.2-2.836-2.161-3.975c-0.96-1.138-2.18-2.036-3.654-2.695c-1.477-0.658-3.193-0.987-5.149-0.987
			c-3.808,0-6.804,1.085-8.991,3.255c-2.188,2.17-3.584,5.247-4.188,9.231H254.935z"/>
		<path fill="#FFFFFF" d="M324.193,208.979v79.291h-8.057c-1.744,0-2.848-0.8-3.309-2.401l-1.121-5.282
			c-2.205,2.526-4.74,4.571-7.604,6.136s-6.199,2.348-10.004,2.348c-2.988,0-5.729-0.623-8.218-1.868
			c-2.49-1.245-4.634-3.049-6.43-5.416c-1.797-2.365-3.185-5.291-4.162-8.777c-0.979-3.486-1.468-7.47-1.468-11.953
			c0-4.055,0.552-7.825,1.654-11.312c1.103-3.486,2.686-6.51,4.75-9.071c2.062-2.561,4.535-4.562,7.416-6.003
			c2.881-1.44,6.118-2.161,9.711-2.161c3.059,0,5.674,0.48,7.844,1.44s4.109,2.259,5.816,3.895v-28.867H324.193z M311.014,247.504
			c-1.494-1.814-3.121-3.095-4.883-3.842c-1.76-0.747-3.654-1.121-5.682-1.121c-1.993,0-3.789,0.374-5.39,1.121
			s-2.971,1.876-4.108,3.388c-1.139,1.512-2.01,3.433-2.615,5.763c-0.605,2.33-0.906,5.078-0.906,8.244
			c0,3.202,0.258,5.915,0.773,8.137c0.516,2.224,1.254,4.038,2.215,5.443c0.96,1.405,2.134,2.419,3.521,3.041
			c1.387,0.623,2.934,0.934,4.642,0.934c2.739,0,5.069-0.569,6.99-1.708c1.921-1.138,3.735-2.756,5.442-4.855V247.504z"/>
		<path fill="#FFFFFF" d="M352.686,217.57c0,1.139-0.232,2.206-0.693,3.201c-0.463,0.997-1.076,1.868-1.842,2.615
			s-1.663,1.343-2.694,1.788c-1.032,0.445-2.134,0.667-3.308,0.667c-1.139,0-2.215-0.222-3.229-0.667
			c-1.014-0.444-1.895-1.041-2.642-1.788s-1.343-1.618-1.787-2.615c-0.445-0.995-0.667-2.062-0.667-3.201
			c0-1.174,0.222-2.276,0.667-3.308c0.444-1.032,1.04-1.921,1.787-2.668s1.628-1.342,2.642-1.788
			c1.014-0.444,2.09-0.667,3.229-0.667c1.174,0,2.275,0.223,3.308,0.667c1.031,0.445,1.929,1.041,2.694,1.788
			s1.379,1.636,1.842,2.668C352.453,215.294,352.686,216.396,352.686,217.57z M350.871,233.524v54.746h-13.232v-54.746H350.871z"/>
		<path fill="#FFFFFF" d="M374.455,262.551c0.213,2.811,0.711,5.238,1.494,7.283c0.781,2.046,1.814,3.735,3.095,5.069
			s2.802,2.33,4.562,2.988c1.762,0.659,3.709,0.987,5.844,0.987c2.134,0,3.975-0.249,5.521-0.747
			c1.548-0.498,2.899-1.049,4.056-1.654c1.155-0.604,2.169-1.156,3.042-1.654c0.871-0.498,1.715-0.747,2.534-0.747
			c1.103,0,1.921,0.409,2.454,1.227l3.789,4.802c-1.459,1.708-3.096,3.14-4.909,4.295c-1.814,1.157-3.708,2.081-5.683,2.775
			c-1.975,0.693-3.984,1.182-6.029,1.467c-2.047,0.284-4.029,0.427-5.949,0.427c-3.808,0-7.347-0.632-10.619-1.894
			c-3.273-1.262-6.119-3.13-8.537-5.603c-2.42-2.472-4.322-5.531-5.709-9.178c-1.388-3.646-2.082-7.871-2.082-12.673
			c0-3.735,0.605-7.248,1.814-10.538c1.209-3.29,2.943-6.154,5.203-8.591c2.258-2.436,5.016-4.366,8.27-5.789
			c3.256-1.422,6.928-2.135,11.02-2.135c3.449,0,6.634,0.552,9.551,1.654c2.916,1.103,5.424,2.713,7.523,4.829
			c2.099,2.117,3.744,4.714,4.936,7.79c1.191,3.078,1.787,6.59,1.787,10.539c0,1.993-0.213,3.335-0.64,4.028
			c-0.427,0.694-1.245,1.041-2.454,1.041H374.455z M399.587,254.601c0-1.708-0.24-3.317-0.721-4.829
			c-0.479-1.512-1.2-2.836-2.161-3.975c-0.96-1.138-2.18-2.036-3.654-2.695c-1.477-0.658-3.193-0.987-5.149-0.987
			c-3.808,0-6.804,1.085-8.991,3.255c-2.188,2.17-3.584,5.247-4.188,9.231H399.587z"/>
		<path fill="#FFFFFF" d="M433.629,240.248c1.103-1.102,2.268-2.125,3.496-3.068c1.227-0.942,2.525-1.742,3.895-2.401
			c1.369-0.658,2.836-1.174,4.402-1.547c1.564-0.374,3.271-0.561,5.122-0.561c2.988,0,5.638,0.507,7.95,1.521
			s4.242,2.437,5.789,4.269c1.548,1.833,2.722,4.02,3.522,6.563c0.8,2.544,1.2,5.345,1.2,8.404v34.843h-13.18v-34.843
			c0-3.343-0.766-5.931-2.294-7.764c-1.53-1.832-3.86-2.748-6.99-2.748c-2.276,0-4.411,0.516-6.403,1.547
			c-1.992,1.032-3.877,2.437-5.655,4.215v39.592h-13.18v-54.746h8.058c1.707,0,2.828,0.8,3.361,2.401L433.629,240.248z"/>
		<path fill="#FFFFFF" d="M498.994,289.124c-4.768,0-8.422-1.342-10.965-4.028c-2.544-2.686-3.815-6.394-3.815-11.125v-30.575
			h-5.603c-0.712,0-1.316-0.231-1.814-0.693c-0.498-0.462-0.747-1.156-0.747-2.081v-5.229l8.804-1.441l2.775-14.94
			c0.178-0.711,0.516-1.262,1.014-1.654c0.498-0.391,1.139-0.587,1.921-0.587h6.83v17.234h14.62v9.391h-14.62v29.667
			c0,1.708,0.417,3.042,1.254,4.002c0.835,0.96,1.982,1.44,3.441,1.44c0.817,0,1.503-0.098,2.054-0.293
			c0.552-0.195,1.031-0.4,1.441-0.614c0.408-0.213,0.773-0.417,1.094-0.613c0.32-0.195,0.641-0.293,0.961-0.293
			c0.391,0,0.711,0.098,0.96,0.293c0.249,0.196,0.515,0.489,0.8,0.88l3.949,6.403c-1.921,1.601-4.127,2.811-6.617,3.628
			S501.662,289.124,498.994,289.124z"/>
		<path fill="#FFFFFF" d="M530.154,262.551c0.214,2.811,0.711,5.238,1.494,7.283c0.782,2.046,1.814,3.735,3.096,5.069
			c1.279,1.334,2.801,2.33,4.562,2.988c1.761,0.659,3.708,0.987,5.843,0.987s3.975-0.249,5.522-0.747
			c1.548-0.498,2.899-1.049,4.056-1.654c1.155-0.604,2.169-1.156,3.041-1.654c0.871-0.498,1.716-0.747,2.535-0.747
			c1.102,0,1.92,0.409,2.453,1.227l3.789,4.802c-1.459,1.708-3.095,3.14-4.908,4.295c-1.814,1.157-3.709,2.081-5.684,2.775
			c-1.975,0.693-3.984,1.182-6.029,1.467c-2.046,0.284-4.028,0.427-5.949,0.427c-3.807,0-7.346-0.632-10.619-1.894
			c-3.272-1.262-6.118-3.13-8.537-5.603c-2.419-2.472-4.322-5.531-5.709-9.178c-1.387-3.646-2.081-7.871-2.081-12.673
			c0-3.735,0.604-7.248,1.814-10.538c1.209-3.29,2.942-6.154,5.202-8.591c2.259-2.436,5.016-4.366,8.271-5.789
			c3.255-1.422,6.928-2.135,11.019-2.135c3.45,0,6.635,0.552,9.551,1.654c2.917,1.103,5.425,2.713,7.523,4.829
			c2.1,2.117,3.744,4.714,4.936,7.79c1.191,3.078,1.788,6.59,1.788,10.539c0,1.993-0.214,3.335-0.64,4.028
			c-0.428,0.694-1.246,1.041-2.455,1.041H530.154z M555.287,254.601c0-1.708-0.24-3.317-0.721-4.829
			c-0.48-1.512-1.201-2.836-2.161-3.975c-0.96-1.138-2.18-2.036-3.655-2.695c-1.477-0.658-3.193-0.987-5.148-0.987
			c-3.808,0-6.804,1.085-8.992,3.255c-2.188,2.17-3.584,5.247-4.188,9.231H555.287z"/>
	</g>
	<g display="inline">
		<path fill="#D7E8FF" d="M528.062,421.562H328.688v130.5h199.375V421.562z M520.812,544.812H335.938v-116h184.875V544.812z"/>
		<polygon fill="#D7E8FF" points="368.562,396.188 553.438,396.188 553.438,512.188 535.312,512.188 535.312,519.438 
			560.688,519.438 560.688,388.938 361.312,388.938 361.312,414.312 368.562,414.312 		"/>
		<path fill="#D7E8FF" d="M509.938,439.688h-32.625v36.25h32.625V439.688z M502.688,468.688h-18.125v-21.75h18.125V468.688z"/>
		<rect x="444.688" y="439.688" fill="#D7E8FF" width="7.25" height="94.25"/>
		<rect x="346.812" y="446.938" fill="#D7E8FF" width="87" height="7.25"/>
		<rect x="346.812" y="465.062" fill="#D7E8FF" width="76.125" height="7.25"/>
		<rect x="346.812" y="483.188" fill="#D7E8FF" width="79.75" height="7.25"/>
	</g>
</g>
</svg>
