<?xml version="1.0" encoding="utf-8"?>
<!-- Generator: Adobe Illustrator 16.0.0, SVG Export Plug-In . SVG Version: 6.00 Build 0)  -->
<!DOCTYPE svg PUBLIC "-//W3C//DTD SVG 1.1//EN" "http://www.w3.org/Graphics/SVG/1.1/DTD/svg11.dtd">
<svg version="1.1" xmlns="http://www.w3.org/2000/svg" xmlns:xlink="http://www.w3.org/1999/xlink" x="0px" y="0px" width="600px"
	 height="600px" viewBox="0 0 600 600" enable-background="new 0 0 600 600" xml:space="preserve">
<g id="Bot_1">
	<g display="inline">
		<g>
			
				<radialGradient id="XMLID_10_" cx="763.875" cy="1083.5186" r="59.1011" gradientTransform="matrix(20.2539 0 0 15.1033 -15377.4883 -16422.8789)" gradientUnits="userSpaceOnUse">
				<stop  offset="0.0538" style="stop-color:#F27121"/>
				<stop  offset="0.371" style="stop-color:#E94057"/>
				<stop  offset="1" style="stop-color:#8A2387"/>
			</radialGradient>
			<rect id="XMLID_916_" x="-4.72" y="-34.368" fill="url(#XMLID_10_)" width="609.439" height="642.736"/>
			<g id="XMLID_703_">
				<defs>
					<rect id="XMLID_704_" x="-4.72" y="-34.368" width="609.439" height="642.736"/>
				</defs>
				<clipPath id="XMLID_11_">
					<use xlink:href="#XMLID_704_"  overflow="visible"/>
				</clipPath>
				<g id="XMLID_705_" clip-path="url(#XMLID_11_)">
					<g id="XMLID_910_" opacity="0">
						<path id="XMLID_911_" fill="#FFFFFF" d="M-263.269,329.031h-65.082l-0.225-0.285L-360.892,287l32.541-42.031h65.082
							l0.219,0.285L-230.728,287L-263.269,329.031z M-315.784,312.795h39.943L-255.872,287l-19.969-25.795h-39.943L-335.751,287
							L-315.784,312.795z"/>
					</g>
					<g id="XMLID_906_" opacity="0.0196">
						<path id="XMLID_907_" fill="#FFFFFF" d="M-252.653,342.736h-86.312L-382.118,287l43.152-55.734h86.312L-209.507,287
							L-252.653,342.736z M-337.989,341.481h84.363L-211.444,287l-42.182-54.482h-84.363L-380.177,287L-337.989,341.481z"/>
					</g>
					<g id="XMLID_902_" opacity="0.0392">
						<path id="XMLID_903_" fill="#FFFFFF" d="M-242.048,356.441h-107.525l-0.262-0.344L-403.341,287l53.768-69.438h107.525
							l0.258,0.341L-188.286,287L-242.048,356.441z M-348.515,355.075h105.41L-190.397,287l-52.707-68.076h-105.41L-401.224,287
							L-348.515,355.075z"/>
					</g>
					<g id="XMLID_898_" opacity="0.0588">
						<path id="XMLID_899_" fill="#FFFFFF" d="M-231.44,370.148h-128.744l-0.285-0.372L-424.558,287l64.373-83.144h128.744
							l0.291,0.369L-167.062,287L-231.44,370.148z M-359.04,368.668h126.457L-169.349,287l-63.234-81.667H-359.04L-422.274,287
							L-359.04,368.668z"/>
					</g>
					<g id="XMLID_894_" opacity="0.0784">
						<path id="XMLID_895_" fill="#FFFFFF" d="M-220.825,383.854h-149.973l-0.303-0.402L-445.784,287l0.311-0.396l74.676-96.453
							h149.973l0.307,0.397L-145.841,287l-0.311,0.396L-220.825,383.854z M-369.563,382.262h147.508L-148.3,287l-73.756-95.263
							h-147.508L-443.319,287L-369.563,382.262z"/>
					</g>
					<g id="XMLID_890_" opacity="0.098">
						<path id="XMLID_891_" fill="#FFFFFF" d="M-210.214,397.554h-171.191l-0.332-0.423L-467.003,287l85.598-110.555h171.191
							l0.33,0.424L-124.622,287L-210.214,397.554z M-380.091,395.855h168.561L-127.253,287l-84.277-108.854h-168.561L-464.372,287
							L-380.091,395.855z"/>
					</g>
					<g id="XMLID_886_" opacity="0.1176">
						<path id="XMLID_887_" fill="#FFFFFF" d="M-199.606,411.259h-192.416L-488.224,287l96.201-124.26h192.416L-103.401,287
							L-199.606,411.259z M-390.616,409.449h189.607L-106.206,287l-94.803-122.447h-189.607L-485.419,287L-390.616,409.449z"/>
					</g>
					<g id="XMLID_882_" opacity="0.1373">
						<path id="XMLID_883_" fill="#FFFFFF" d="M-188.995,424.966h-213.633l-0.371-0.484L-509.448,287l0.379-0.481l106.441-137.483
							h213.633l0.373,0.481L-82.179,287l-0.371,0.482L-188.995,424.966z M-401.138,423.042h210.656L-85.159,287l-105.322-136.039
							h-210.656L-506.466,287L-401.138,423.042z"/>
					</g>
					<g id="XMLID_878_" opacity="0.1569">
						<path id="XMLID_879_" fill="#FFFFFF" d="M-178.382,438.671h-234.855L-530.667,287l117.43-151.67h234.855L-60.956,287
							L-178.382,438.671z M-411.663,436.632h231.701L-64.108,287l-115.854-149.632h-231.701L-527.513,287L-411.663,436.632z"/>
					</g>
					<g id="XMLID_874_" opacity="0.1765">
						<path id="XMLID_875_" fill="#FFFFFF" d="M-167.774,452.373h-256.07l-0.422-0.535L-551.89,287l128.045-165.373h256.07
							l0.416,0.537L-39.735,287L-167.774,452.373z M-422.188,450.224h252.754L-43.062,287l-126.373-163.227h-252.754L-548.563,287
							L-422.188,450.224z"/>
					</g>
					<g id="XMLID_870_" opacity="0.1961">
						<path id="XMLID_871_" fill="#FFFFFF" d="M-157.163,466.078h-277.299L-573.108,287l138.646-179.078h277.299L-18.513,287
							L-157.163,466.078z M-432.71,463.819h273.797L-22.015,287l-136.898-176.82H-432.71L-569.61,287L-432.71,463.819z"/>
					</g>
					<g id="XMLID_866_" opacity="0.2157">
						<path id="XMLID_867_" fill="#FFFFFF" d="M-146.554,479.783h-298.518l-0.461-0.594L-594.333,287l149.262-192.784h298.518
							l0.463,0.594L2.708,287L-146.554,479.783z M-443.237,477.413h294.85L-0.962,287L-148.388,96.587h-294.85L-590.657,287
							L-443.237,477.413z"/>
					</g>
					<g id="XMLID_862_" opacity="0.2353">
						<path id="XMLID_863_" fill="#FFFFFF" d="M-135.942,493.489h-319.736l-0.48-0.621L-615.552,287l0.48-0.622l159.393-205.865
							h319.736l0.482,0.621L23.933,287l-0.484,0.621L-135.942,493.489z M-453.761,491.006h315.896L20.079,287L-137.864,82.997
							h-315.896L-611.704,287L-453.761,491.006z"/>
					</g>
					<g id="XMLID_858_" opacity="0.2549">
						<path id="XMLID_859_" fill="#FFFFFF" d="M-125.329,507.19H-466.29l-0.504-0.647L-636.772,287L-466.29,66.807h340.961
							l0.504,0.649L45.149,287L-125.329,507.19z M-464.286,504.599h336.947L41.134,287L-127.339,69.405h-336.947L-632.759,287
							L-464.286,504.599z"/>
					</g>
					<g id="XMLID_854_" opacity="0.2745">
						<path id="XMLID_855_" fill="#FFFFFF" d="M-114.72,520.896h-362.184l-0.525-0.677L-657.999,287l0.527-0.678l180.568-233.219
							h362.184L66.374,287l-0.525,0.677L-114.72,520.896z M-474.808,518.193h357.99L62.181,287L-116.817,55.812h-357.99
							L-653.802,287L-474.808,518.193z"/>
					</g>
					<g id="XMLID_850_" opacity="0.2941">
						<path id="XMLID_851_" fill="#FFFFFF" d="M-104.108,534.601h-383.406L-679.218,287l0.549-0.704l191.154-246.897h383.406
							l0.547,0.706L87.593,287l-0.543,0.704L-104.108,534.601z M-485.333,531.782h379.041L83.228,287l-189.52-244.782h-379.041
							L-674.853,287L-485.333,531.782z"/>
					</g>
					<g id="XMLID_846_" opacity="0.3137">
						<path id="XMLID_847_" fill="#FFFFFF" d="M-93.497,548.307h-404.625L-700.438,287l202.316-261.305h404.625l0.566,0.73
							L108.819,287L-93.497,548.307z M-495.854,545.375h400.084L104.276,287L-95.771,28.625h-400.084L-695.896,287L-495.854,545.375
							z"/>
					</g>
					<g id="XMLID_842_" opacity="0.3333">
						<path id="XMLID_843_" fill="#FFFFFF" d="M-82.89,562.012h-425.844l-0.592-0.763L-721.657,287l0.588-0.761l212.336-274.248
							H-82.89L130.038,287l-0.594,0.763L-82.89,562.012z M-506.38,558.968h421.141L125.325,287L-85.239,15.031H-506.38L-716.95,287
							L-506.38,558.968z"/>
					</g>
					<g id="XMLID_838_" opacity="0.3529">
						<path id="XMLID_839_" fill="#FFFFFF" d="M-72.276,575.717h-447.072L-742.878,287l0.607-0.79L-519.349-1.714h447.072
							L151.259,287l-0.611,0.789L-72.276,575.717z M-516.901,572.562h442.184L146.372,287L-74.718,1.44h-442.184L-737.997,287
							L-516.901,572.562z"/>
					</g>
					<g id="XMLID_834_" opacity="0.3725">
						<path id="XMLID_835_" fill="#FFFFFF" d="M-61.665,589.419h-468.291l-0.635-0.815L-764.103,287l234.146-302.42h468.291
							L172.478,287L-61.665,589.419z M-527.427,586.152h463.23L167.425,287L-64.196-12.152h-463.23L-759.044,287L-527.427,586.152z"
							/>
					</g>
					<g id="XMLID_830_" opacity="0.3922">
						<path id="XMLID_831_" fill="#FFFFFF" d="M-51.058,603.124h-489.51l-0.658-0.844L-785.323,287l0.652-0.846l244.104-315.28
							h489.51l0.652,0.844L193.698,287l-0.652,0.845L-51.058,603.124z M-537.95,599.745h484.279L188.472,287L-53.671-25.746H-537.95
							L-780.091,287L-537.95,599.745z"/>
					</g>
					<g id="XMLID_826_" opacity="0.4118">
						<path id="XMLID_827_" fill="#FFFFFF" d="M-40.446,616.831h-510.732l-0.672-0.871L-806.544,287l255.365-329.829h510.732
							L214.919,287L-40.446,616.831z M-548.476,613.339h505.332L209.519,287L-43.144-39.339h-505.332L-801.14,287L-548.476,613.339z
							"/>
					</g>
					<g id="XMLID_822_" opacity="0.4314">
						<path id="XMLID_823_" fill="#FFFFFF" d="M-29.831,630.532h-531.957l-0.697-0.896L-827.769,287l0.699-0.902l265.281-342.631
							h531.957l0.693,0.899L236.144,287l-0.699,0.9L-29.831,630.532z M-559.003,626.933h526.381L230.567,287L-32.622-52.932
							h-526.381L-822.188,287L-559.003,626.933z"/>
					</g>
					<g id="XMLID_818_" opacity="0.451">
						<path id="XMLID_819_" fill="#FFFFFF" d="M-19.22,644.237h-553.176l-0.727-0.926L-848.983,287l276.588-357.238H-19.22
							l0.717,0.927L257.368,287L-19.22,644.237z M-569.524,640.526h547.424L251.616,287L-22.101-66.523h-547.424L-843.239,287
							L-569.524,640.526z"/>
					</g>
					<g id="XMLID_814_" opacity="0.4706">
						<path id="XMLID_815_" fill="#FFFFFF" d="M-8.612,657.942h-574.396l-0.744-0.957L-870.208,287l0.738-0.958l286.461-369.985
							H-8.612L278.583,287l-0.738,0.957L-8.612,657.942z M-580.046,654.118h568.471L272.663,287L-11.575-80.119h-568.471
							L-864.282,287L-580.046,654.118z"/>
					</g>
					<g id="XMLID_810_" opacity="0.4902">
						<path id="XMLID_811_" fill="#FFFFFF" d="M1.997,671.649H-593.62l-0.764-0.984L-891.429,287L-593.62-97.649H1.997l0.762,0.985
							L299.81,287L1.997,671.649z M-590.575,667.712H-1.048L293.71,287L-1.048-93.71h-589.527L-885.335,287L-590.575,667.712z"/>
					</g>
					<g id="XMLID_806_" opacity="0.5098">
						<path id="XMLID_807_" fill="#FFFFFF" d="M12.608,685.354h-616.842l-0.783-1.014L-912.655,287l0.783-1.014l307.639-397.341
							H12.608l0.785,1.014L321.03,287l-0.781,1.013L12.608,685.354z M-601.097,681.302H9.474L314.759,287L9.474-107.304h-610.57
							L-906.384,287L-601.097,681.302z"/>
					</g>
					<g id="XMLID_802_" opacity="0.5294">
						<path id="XMLID_803_" fill="#FFFFFF" d="M23.22,699.06h-638.059L-933.872,287l319.033-412.059H23.22l0.803,1.042L342.249,287
							L23.22,699.06z M-611.618,694.896H19.999L335.806,287L19.999-120.895h-631.617L-927.431,287L-611.618,694.896z"/>
					</g>
					<g id="XMLID_798_" opacity="0.549">
						<path id="XMLID_799_" fill="#FFFFFF" d="M33.829,712.761h-659.283L-955.095,287l0.828-1.07l328.812-424.694H33.829l0.83,1.07
							L363.474,287l-0.832,1.068L33.829,712.761z M-622.144,708.489H30.521L356.853,287L30.521-134.488h-652.664L-948.478,287
							L-622.144,708.489z"/>
					</g>
					<g id="XMLID_794_" opacity="0.5686">
						<path id="XMLID_795_" fill="#FFFFFF" d="M44.44,726.468h-680.506L-976.317,287l340.252-439.467H44.44L384.692,287
							L44.44,726.468z M-632.671,722.081H41.046L377.899,287L41.046-148.082h-673.717L-969.524,287L-632.671,722.081z"/>
					</g>
					<g id="XMLID_790_" opacity="0.5882">
						<path id="XMLID_791_" fill="#FFFFFF" d="M55.054,740.173h-701.727l-0.871-1.127L-997.534,287l0.867-1.126l349.994-452.047
							H55.054l0.867,1.126L405.919,287l-0.875,1.125L55.054,740.173z M-643.194,735.675H51.569L398.95,287L51.569-161.675h-694.764
							L-990.575,287L-643.194,735.675z"/>
					</g>
					<g id="XMLID_786_" opacity="0.6078">
						<path id="XMLID_787_" fill="#FFFFFF" d="M65.663,753.878h-722.947L-1018.757,287l361.473-466.878H65.663L427.134,287
							L65.663,753.878z M-653.716,749.269H62.095L420.001,287L62.095-175.267h-715.811L-1011.622,287L-653.716,749.269z"/>
					</g>
					<g id="XMLID_782_" opacity="0.6275">
						<path id="XMLID_783_" fill="#FFFFFF" d="M76.274,767.579h-744.172l-0.914-1.176L-1039.983,287l0.912-1.182l371.174-479.4
							H76.274l0.914,1.179L448.36,287l-0.914,1.181L76.274,767.579z M-664.241,762.858H72.616L441.048,287L72.616-188.86h-736.857
							L-1032.669,287L-664.241,762.858z"/>
					</g>
					<g id="XMLID_778_" opacity="0.6471">
						<path id="XMLID_779_" fill="#FFFFFF" d="M86.886,781.284h-765.391L-1061.204,287l382.699-494.285H86.886l0.93,1.208
							L469.579,287L86.886,781.284z M-674.767,776.452h757.91L462.095,287L83.144-202.453h-757.91L-1053.716,287L-674.767,776.452z"
							/>
					</g>
					<g id="XMLID_774_" opacity="0.6667">
						<path id="XMLID_775_" fill="#FFFFFF" d="M97.497,794.991h-786.613l-0.959-1.234L-1082.423,287l0.957-1.235l392.35-506.755
							H97.497l0.953,1.238L490.798,287l-0.957,1.236L97.497,794.991z M-685.288,790.05H93.669L483.146,287L93.669-216.045h-778.957
							L-1074.765,287L-685.288,790.05z"/>
					</g>
					<g id="XMLID_770_" opacity="0.6863">
						<path id="XMLID_771_" fill="#FFFFFF" d="M108.106,808.696h-807.838L-1103.644,287l403.912-521.696h807.838l0.979,1.265
							L512.024,287L108.106,808.696z M-695.813,803.642H104.19L504.192,287L104.19-229.639h-800.004L-1095.817,287L-695.813,803.642
							z"/>
					</g>
					<g id="XMLID_766_" opacity="0.7059">
						<path id="XMLID_767_" fill="#FFFFFF" d="M118.714,822.401h-829.053l-1.002-1.293L-1124.868,287l1.004-1.292l413.525-534.107
							h829.053l1.002,1.292L533.243,287l-1.004,1.292L118.714,822.401z M-706.335,817.233h821.047L525.239,287L114.712-243.232
							h-821.047L-1116.86,287L-706.335,817.233z"/>
					</g>
					<g id="XMLID_762_" opacity="0.7255">
						<path id="XMLID_763_" fill="#FFFFFF" d="M129.331,836.106h-850.275l-1.027-1.318L-1146.089,287l425.145-549.104h850.275
							l1.021,1.32L554.47,287L129.331,836.106z M-716.862,830.825h842.1L546.286,287L125.237-256.826h-842.1L-1137.911,287
							L-716.862,830.825z"/>
					</g>
					<g id="XMLID_758_" opacity="0.7451">
						<path id="XMLID_759_" fill="#FFFFFF" d="M139.937,849.812H-731.56l-1.043-1.348L-1167.31,287l1.043-1.35l434.707-561.459
							h871.496L575.685,287l-1.039,1.349L139.937,849.812z M-727.386,844.419h863.148L567.337,287L135.763-270.417h-863.148
							L-1158.962,287L-727.386,844.419z"/>
					</g>
					<g id="XMLID_754_" opacity="0.7647">
						<path id="XMLID_755_" fill="#FFFFFF" d="M150.546,863.515h-892.717l-1.064-1.377L-1188.528,287l446.357-576.515h892.717
							L596.907,287L150.546,863.515z M-737.911,858.011h884.197L588.384,287L146.286-284.008h-884.197L-1180.009,287
							L-737.911,858.011z"/>
					</g>
					<g id="XMLID_750_" opacity="0.7843">
						<path id="XMLID_751_" fill="#FFFFFF" d="M161.159,877.22h-913.941l-1.084-1.4L-1209.755,287l1.09-1.403l455.883-588.816
							h913.941l1.088,1.405L618.13,287l-1.09,1.404L161.159,877.22z M-748.433,871.606h905.24L609.431,287L156.808-297.601h-905.24
							L-1201.056,287L-748.433,871.606z"/>
					</g>
					<g id="XMLID_746_" opacity="0.8039">
						<path id="XMLID_747_" fill="#FFFFFF" d="M171.771,890.925h-935.164l-1.109-1.43L-1230.974,287l467.58-603.923h935.164
							L639.353,287L171.771,890.925z M-758.958,885.196h926.297L630.478,287L167.339-311.195h-926.297L-1222.103,287
							L-758.958,885.196z"/>
					</g>
					<g id="XMLID_742_" opacity="0.8235">
						<path id="XMLID_743_" fill="#FFFFFF" d="M182.38,904.63h-956.383l-1.131-1.461L-1252.194,287l1.129-1.46l477.062-616.167
							H182.38l1.129,1.458L660.575,287l-1.129,1.46L182.38,904.63z M-769.479,898.788h947.34L651.524,287L177.86-324.789h-947.34
							L-1243.153,287L-769.479,898.788z"/>
					</g>
					<g id="XMLID_738_" opacity="0.8431">
						<path id="XMLID_739_" fill="#FFFFFF" d="M192.991,918.333h-977.607l-1.148-1.484L-1273.413,287l1.146-1.488l487.65-629.845
							h977.607L681.794,287l-1.152,1.487L192.991,918.333z M-780.005,912.382h968.387L672.579,287L188.382-338.382h-968.387
							L-1264.2,287L-780.005,912.382z"/>
					</g>
					<g id="XMLID_734_" opacity="0.8627">
						<path id="XMLID_735_" fill="#FFFFFF" d="M203.603,932.038h-998.824L-1294.638,287l499.416-645.038h998.824l1.17,1.516
							L703.013,287L203.603,932.038z M-790.526,925.976h989.434L693.626,287L198.907-351.974h-989.434L-1285.247,287
							L-790.526,925.976z"/>
					</g>
					<g id="XMLID_730_" opacity="0.8824">
						<path id="XMLID_731_" fill="#FFFFFF" d="M214.212,945.743H-805.837l-1.191-1.545L-1315.86,287l1.193-1.544l508.83-657.199
							H214.212L724.235,287l-1.195,1.543L214.212,945.743z M-801.052,939.569H209.433L714.673,287l-505.24-652.568H-801.052
							L-1306.298,287L-801.052,939.569z"/>
					</g>
					<g id="XMLID_726_" opacity="0.902">
						<path id="XMLID_727_" fill="#FFFFFF" d="M224.823,959.448H-816.448l-1.211-1.574L-1337.079,287l1.215-1.572l519.416-670.877
							H224.823L745.458,287l-1.219,1.574L224.823,959.448z M-811.579,953.163H219.954L735.72,287L219.954-379.159H-811.579
							L-1327.347,287L-811.579,953.163z"/>
					</g>
					<g id="XMLID_722_" opacity="0.9216">
						<path id="XMLID_723_" fill="#FFFFFF" d="M235.437,973.153H-827.056L-1358.304,287l1.238-1.6l530.01-684.552H235.437
							l1.238,1.599L766.681,287l-1.238,1.599L235.437,973.153z M-822.103,966.753H230.481L756.771,287L230.481-392.752H-822.103
							L-1348.396,287L-822.103,966.753z"/>
					</g>
					<g id="XMLID_718_" opacity="0.9412">
						<path id="XMLID_719_" fill="#FFFFFF" d="M246.048,986.858H-837.665l-1.26-1.629L-1379.519,287l1.256-1.628l540.598-698.228
							H246.048L787.903,287l-1.262,1.63L246.048,986.858z M-832.624,980.345H241.003L777.817,287L241.003-406.345H-832.624
							L-1369.442,287L-832.624,980.345z"/>
					</g>
					<g id="XMLID_714_" opacity="0.9608">
						<path id="XMLID_715_" fill="#FFFFFF" d="M256.657,1000.562H-848.28L-1400.743,287l1.279-1.656l551.184-711.906H256.657
							L809.118,287l-1.273,1.655L256.657,1000.562z M-843.153,993.938H251.53L798.864,287L251.53-419.939H-843.153L-1390.489,287
							L-843.153,993.938z"/>
					</g>
					<g id="XMLID_710_" opacity="0.9804">
						<path id="XMLID_711_" fill="#FFFFFF" d="M267.263,1014.267h-1126.15L-1421.966,287l1.305-1.685l561.773-725.583h1126.15
							l1.307,1.686L830.345,287l-1.301,1.686L267.263,1014.267z M-853.675,1007.532H262.05L819.911,287L262.05-433.533H-853.675
							L-1411.536,287L-853.675,1007.532z"/>
					</g>
					<g id="XMLID_706_">
						<path id="XMLID_707_" fill="#FFFFFF" d="M277.88,1027.972H-869.499l-1.326-1.711L-1443.188,287l573.689-740.97H277.88
							l1.324,1.711L851.563,287L277.88,1027.972z M-864.196,1021.126H272.577L840.962,287L272.577-447.124H-864.196L-1432.587,287
							L-864.196,1021.126z"/>
					</g>
				</g>
			</g>
		</g>
	</g>
	<path id="Icon_material-person-pin" display="inline" fill="#E2DDEE" d="M538.404,370.755H398.741
		c-11.015-0.003-19.948,8.925-19.95,19.94c0,0.003,0,0.006,0,0.01v139.662c-0.002,11.015,8.924,19.948,19.94,19.949
		c0.003,0,0.007,0,0.01,0h39.903l29.928,29.929l29.928-29.929h39.904c11.006-0.028,19.92-8.943,19.949-19.949V390.705
		C558.324,379.699,549.41,370.784,538.404,370.755z M468.566,403.674c14.877,0,26.934,12.06,26.934,26.935
		c0,14.875-12.057,26.934-26.934,26.934c-14.875,0-26.934-12.059-26.934-26.934l0,0
		C441.643,415.736,453.695,403.682,468.566,403.674z M528.422,510.411H408.719v-8.974c0-19.951,39.903-30.925,59.854-30.925
		s59.852,10.974,59.852,30.925L528.422,510.411z"/>
	<g display="inline">
		<path fill="#FFFFFF" d="M71.688,154.21H54.094V59.985h17.594V154.21z"/>
		<path fill="#FFFFFF" d="M104.27,95.564c1.346-1.346,2.77-2.596,4.268-3.747c1.498-1.15,3.084-2.128,4.757-2.932
			c1.672-0.803,3.464-1.434,5.376-1.89c1.911-0.457,3.996-0.685,6.256-0.685c3.648,0,6.885,0.619,9.709,1.857
			c2.823,1.238,5.18,2.976,7.07,5.213c1.889,2.238,3.322,4.91,4.301,8.015c0.977,3.106,1.466,6.527,1.466,10.263v42.551h-16.095
			v-42.551c0-4.083-0.936-7.243-2.803-9.481c-1.868-2.237-4.714-3.356-8.536-3.356c-2.78,0-5.387,0.63-7.819,1.89
			c-2.434,1.261-4.735,2.976-6.907,5.148v48.351H89.217V87.354h9.84c2.084,0,3.453,0.977,4.104,2.932L104.27,95.564z"/>
		<path fill="#FFFFFF" d="M181.615,67.87c0,1.391-0.282,2.694-0.846,3.91c-0.566,1.217-1.314,2.281-2.249,3.193
			c-0.935,0.912-2.03,1.64-3.29,2.183c-1.261,0.544-2.607,0.814-4.041,0.814c-1.391,0-2.703-0.271-3.941-0.814
			c-1.238-0.542-2.313-1.271-3.227-2.183c-0.912-0.913-1.64-1.977-2.182-3.193c-0.545-1.215-0.815-2.519-0.815-3.91
			c0-1.434,0.271-2.779,0.815-4.04c0.542-1.259,1.27-2.346,2.182-3.258c0.913-0.913,1.988-1.64,3.227-2.183
			c1.238-0.542,2.551-0.814,3.941-0.814c1.434,0,2.78,0.272,4.041,0.814c1.26,0.543,2.355,1.271,3.29,2.183
			c0.935,0.912,1.683,1.999,2.249,3.258C181.333,65.09,181.615,66.436,181.615,67.87z M179.4,87.354v66.856h-16.16V87.354H179.4z"/>
		<path fill="#FFFFFF" d="M243.716,101.494c-0.479,0.609-0.944,1.086-1.401,1.434c-0.455,0.348-1.119,0.521-1.987,0.521
			c-0.825,0-1.629-0.249-2.411-0.749c-0.781-0.499-1.717-1.064-2.802-1.694c-1.087-0.629-2.378-1.194-3.877-1.694
			c-1.499-0.499-3.356-0.75-5.571-0.75c-2.824,0-5.301,0.511-7.429,1.532c-2.129,1.021-3.899,2.487-5.311,4.398
			c-1.413,1.912-2.466,4.225-3.161,6.939c-0.695,2.716-1.042,5.79-1.042,9.221c0,3.562,0.38,6.734,1.14,9.514
			c0.76,2.781,1.857,5.115,3.291,7.005s3.171,3.323,5.213,4.301s4.344,1.466,6.908,1.466c2.562,0,4.637-0.315,6.223-0.945
			c1.585-0.629,2.921-1.325,4.008-2.085c1.085-0.759,2.029-1.455,2.834-2.085c0.803-0.629,1.705-0.945,2.704-0.945
			c1.304,0,2.28,0.5,2.933,1.499l4.627,5.865c-1.782,2.085-3.715,3.834-5.8,5.246c-2.085,1.412-4.247,2.541-6.483,3.388
			c-2.238,0.847-4.541,1.444-6.908,1.792c-2.367,0.347-4.724,0.521-7.07,0.521c-4.127,0-8.014-0.772-11.664-2.313
			c-3.648-1.542-6.842-3.79-9.578-6.744c-2.736-2.954-4.898-6.57-6.484-10.85c-1.586-4.278-2.378-9.155-2.378-14.629
			c0-4.909,0.706-9.459,2.118-13.651c1.411-4.192,3.486-7.82,6.223-10.882s6.125-5.462,10.166-7.201
			c4.039-1.737,8.688-2.606,13.944-2.606c4.995,0,9.372,0.805,13.13,2.411c3.758,1.608,7.135,3.91,10.133,6.907L243.716,101.494z"/>
		<path fill="#FFFFFF" d="M277.534,67.87c0,1.391-0.282,2.694-0.847,3.91c-0.565,1.217-1.314,2.281-2.248,3.193
			c-0.936,0.912-2.031,1.64-3.291,2.183c-1.26,0.544-2.606,0.814-4.04,0.814c-1.391,0-2.704-0.271-3.942-0.814
			c-1.238-0.542-2.312-1.271-3.226-2.183c-0.912-0.913-1.64-1.977-2.183-3.193c-0.544-1.215-0.814-2.519-0.814-3.91
			c0-1.434,0.271-2.779,0.814-4.04c0.543-1.259,1.271-2.346,2.183-3.258c0.913-0.913,1.987-1.64,3.226-2.183
			c1.238-0.542,2.552-0.814,3.942-0.814c1.434,0,2.78,0.272,4.04,0.814c1.26,0.543,2.355,1.271,3.291,2.183
			c0.934,0.912,1.683,1.999,2.248,3.258C277.252,65.09,277.534,66.436,277.534,67.87z M275.318,87.354v66.856h-16.16V87.354H275.318
			z"/>
		<path fill="#FFFFFF" d="M290.176,96.671c7.689-7.038,16.941-10.556,27.759-10.556c3.909,0,7.406,0.642,10.491,1.922
			c3.084,1.282,5.69,3.062,7.819,5.343c2.128,2.281,3.747,5.007,4.854,8.178c1.107,3.172,1.662,6.646,1.662,10.426v42.225h-7.299
			c-1.521,0-2.693-0.228-3.519-0.684s-1.478-1.379-1.954-2.77l-1.434-4.822c-1.695,1.521-3.346,2.857-4.953,4.007
			c-1.607,1.151-3.28,2.118-5.018,2.899c-1.738,0.782-3.595,1.379-5.57,1.792c-1.979,0.413-4.161,0.619-6.549,0.619
			c-2.825,0-5.432-0.381-7.82-1.14c-2.39-0.76-4.453-1.9-6.19-3.421c-1.737-1.521-3.085-3.41-4.04-5.669
			c-0.956-2.258-1.434-4.887-1.434-7.885c0-1.694,0.282-3.377,0.848-5.05c0.563-1.672,1.487-3.269,2.77-4.79
			c1.28-1.52,2.941-2.954,4.984-4.301c2.041-1.346,4.551-2.519,7.526-3.519c2.976-0.999,6.44-1.813,10.394-2.444
			c3.952-0.629,8.471-1.01,13.554-1.14v-3.91c0-4.474-0.956-7.787-2.867-9.938c-1.912-2.15-4.671-3.226-8.276-3.226
			c-2.605,0-4.768,0.305-6.482,0.913c-1.717,0.609-3.227,1.293-4.529,2.052c-1.303,0.761-2.487,1.445-3.552,2.053
			c-1.065,0.609-2.248,0.912-3.552,0.912c-1.129,0-2.084-0.293-2.867-0.879c-0.781-0.586-1.412-1.271-1.889-2.053L290.176,96.671z
			 M327.058,125.669c-4.649,0.218-8.56,0.619-11.729,1.206c-3.172,0.586-5.713,1.335-7.624,2.248
			c-1.912,0.912-3.28,1.977-4.104,3.193c-0.826,1.217-1.238,2.542-1.238,3.975c0,2.824,0.836,4.844,2.508,6.06
			c1.672,1.216,3.855,1.824,6.549,1.824c3.301,0,6.158-0.597,8.569-1.792c2.411-1.194,4.767-3.007,7.07-5.441V125.669z"/>
		<path fill="#FFFFFF" d="M373.061,98.952c2.086-3.996,4.562-7.135,7.429-9.416s6.256-3.421,10.165-3.421
			c3.084,0,5.561,0.674,7.429,2.02l-1.042,12.055c-0.219,0.782-0.533,1.336-0.945,1.662c-0.413,0.326-0.967,0.489-1.662,0.489
			c-0.65,0-1.618-0.108-2.898-0.326c-1.283-0.217-2.531-0.326-3.748-0.326c-1.781,0-3.367,0.261-4.756,0.782
			c-1.391,0.521-2.64,1.271-3.748,2.248c-1.107,0.978-2.084,2.162-2.932,3.551c-0.848,1.391-1.641,2.976-2.379,4.757v41.183h-16.095
			V87.354h9.448c1.65,0,2.803,0.293,3.454,0.879s1.085,1.64,1.304,3.161L373.061,98.952z"/>
		<path fill="#FFFFFF" d="M134.83,310.6h-13.554c-1.521,0-2.759-0.38-3.714-1.14c-0.957-0.76-1.674-1.705-2.15-2.835l-7.038-19.223
			H69.342l-7.037,19.223c-0.349,1-1.021,1.912-2.021,2.737c-1,0.826-2.237,1.238-3.714,1.238H42.886l37.077-94.225h17.855
			L134.83,310.6z M103.878,275.021l-11.469-31.343c-0.565-1.39-1.151-3.04-1.759-4.952c-0.609-1.911-1.217-3.975-1.825-6.19
			c-0.565,2.215-1.151,4.291-1.759,6.223c-0.609,1.934-1.195,3.617-1.76,5.05l-11.404,31.213H103.878z"/>
		<path fill="#FFFFFF" d="M160.309,311.642c-5.822,0-10.286-1.639-13.391-4.919c-3.107-3.28-4.66-7.809-4.66-13.586v-37.338h-6.842
			c-0.869,0-1.607-0.282-2.215-0.847c-0.609-0.564-0.913-1.411-0.913-2.541v-6.386l10.752-1.759l3.389-18.246
			c0.217-0.868,0.629-1.541,1.237-2.02c0.608-0.477,1.391-0.717,2.347-0.717h8.341v21.048h17.854v11.468h-17.854v36.23
			c0,2.085,0.51,3.714,1.531,4.887c1.02,1.173,2.421,1.759,4.203,1.759c0.998,0,1.834-0.119,2.508-0.358
			c0.674-0.238,1.26-0.489,1.76-0.75c0.499-0.26,0.945-0.51,1.336-0.749c0.391-0.238,0.782-0.358,1.173-0.358
			c0.478,0,0.868,0.12,1.173,0.358c0.304,0.239,0.629,0.598,0.978,1.075l4.822,7.819c-2.347,1.955-5.04,3.432-8.08,4.431
			C166.715,311.142,163.566,311.642,160.309,311.642z"/>
		<path fill="#FFFFFF" d="M198.362,279.191c0.261,3.432,0.868,6.397,1.825,8.895c0.955,2.499,2.215,4.562,3.779,6.19
			c1.563,1.629,3.42,2.846,5.57,3.649c2.15,0.805,4.529,1.206,7.136,1.206s4.854-0.303,6.745-0.912
			c1.889-0.608,3.539-1.281,4.951-2.02c1.412-0.738,2.65-1.411,3.715-2.02c1.064-0.608,2.096-0.912,3.096-0.912
			c1.346,0,2.346,0.5,2.997,1.499l4.626,5.865c-1.781,2.085-3.779,3.834-5.994,5.246c-2.216,1.412-4.529,2.541-6.939,3.388
			c-2.412,0.847-4.867,1.444-7.364,1.792c-2.499,0.347-4.919,0.521-7.266,0.521c-4.649,0-8.971-0.772-12.968-2.313
			c-3.996-1.542-7.472-3.822-10.426-6.842c-2.954-3.019-5.277-6.755-6.972-11.208c-1.694-4.453-2.542-9.611-2.542-15.476
			c0-4.562,0.738-8.851,2.216-12.87c1.477-4.018,3.595-7.515,6.354-10.491c2.759-2.975,6.125-5.332,10.101-7.07
			c3.975-1.737,8.459-2.606,13.455-2.606c4.214,0,8.102,0.674,11.664,2.02c3.562,1.347,6.625,3.313,9.188,5.897
			c2.562,2.585,4.571,5.757,6.027,9.514c1.455,3.758,2.183,8.047,2.183,12.87c0,2.433-0.26,4.073-0.781,4.92
			c-0.521,0.847-1.521,1.271-2.998,1.271H198.362z M229.054,269.482c0-2.085-0.293-4.05-0.88-5.897
			c-0.586-1.846-1.466-3.464-2.639-4.854c-1.173-1.39-2.662-2.486-4.464-3.291c-1.803-0.803-3.899-1.206-6.288-1.206
			c-4.648,0-8.309,1.326-10.979,3.975c-2.672,2.65-4.378,6.408-5.116,11.273H229.054z"/>
		<path fill="#FFFFFF" d="M270.627,251.954c1.346-1.346,2.77-2.596,4.269-3.747c1.499-1.15,3.084-2.128,4.757-2.932
			c1.672-0.803,3.464-1.434,5.376-1.89c1.911-0.457,3.996-0.685,6.255-0.685c3.65,0,6.885,0.619,9.71,1.857
			c2.823,1.238,5.181,2.976,7.069,5.213c1.891,2.238,3.324,4.91,4.301,8.015c0.979,3.106,1.467,6.527,1.467,10.263V310.6h-16.096
			v-42.551c0-4.083-0.934-7.243-2.801-9.481c-1.869-2.237-4.715-3.356-8.537-3.356c-2.78,0-5.387,0.63-7.819,1.89
			c-2.434,1.261-4.735,2.976-6.907,5.148V310.6h-16.096v-66.856h9.84c2.086,0,3.454,0.977,4.105,2.932L270.627,251.954z"/>
		<path fill="#FFFFFF" d="M376.972,257.883c-0.479,0.609-0.944,1.086-1.401,1.434c-0.455,0.348-1.119,0.521-1.987,0.521
			c-0.825,0-1.629-0.249-2.411-0.749c-0.781-0.499-1.717-1.064-2.802-1.694c-1.087-0.629-2.378-1.194-3.877-1.694
			c-1.499-0.499-3.356-0.75-5.571-0.75c-2.824,0-5.301,0.511-7.429,1.532c-2.129,1.021-3.899,2.487-5.311,4.398
			c-1.413,1.912-2.466,4.225-3.161,6.939c-0.695,2.716-1.042,5.79-1.042,9.221c0,3.562,0.38,6.734,1.14,9.514
			c0.76,2.781,1.857,5.115,3.291,7.005s3.171,3.323,5.213,4.301s4.344,1.466,6.908,1.466c2.562,0,4.637-0.315,6.223-0.945
			c1.585-0.629,2.921-1.325,4.008-2.085c1.085-0.759,2.029-1.455,2.834-2.085c0.803-0.629,1.705-0.945,2.704-0.945
			c1.304,0,2.28,0.5,2.933,1.499l4.627,5.865c-1.782,2.085-3.715,3.834-5.8,5.246c-2.085,1.412-4.247,2.541-6.483,3.388
			c-2.238,0.847-4.541,1.444-6.908,1.792c-2.367,0.347-4.724,0.521-7.07,0.521c-4.127,0-8.014-0.772-11.664-2.313
			c-3.648-1.542-6.842-3.79-9.578-6.744c-2.736-2.954-4.898-6.57-6.484-10.85c-1.586-4.278-2.378-9.155-2.378-14.629
			c0-4.909,0.706-9.459,2.118-13.651c1.411-4.192,3.486-7.82,6.223-10.882s6.125-5.462,10.166-7.201
			c4.039-1.737,8.688-2.606,13.944-2.606c4.995,0,9.372,0.805,13.13,2.411c3.758,1.608,7.135,3.91,10.133,6.907L376.972,257.883z"/>
		<path fill="#FFFFFF" d="M410.79,224.259c0,1.391-0.282,2.694-0.847,3.91c-0.565,1.217-1.314,2.281-2.248,3.193
			c-0.936,0.912-2.031,1.64-3.291,2.183c-1.26,0.544-2.606,0.814-4.04,0.814c-1.391,0-2.704-0.271-3.942-0.814
			c-1.238-0.542-2.312-1.271-3.226-2.183c-0.912-0.913-1.64-1.977-2.183-3.193c-0.544-1.215-0.814-2.519-0.814-3.91
			c0-1.434,0.271-2.779,0.814-4.04c0.543-1.259,1.271-2.346,2.183-3.258c0.913-0.913,1.987-1.64,3.226-2.183
			c1.238-0.542,2.552-0.814,3.942-0.814c1.434,0,2.78,0.272,4.04,0.814c1.26,0.543,2.355,1.271,3.291,2.183
			c0.934,0.912,1.683,1.999,2.248,3.258C410.508,221.48,410.79,222.826,410.79,224.259z M408.574,243.743V310.6h-16.16v-66.856
			H408.574z"/>
		<path fill="#FFFFFF" d="M454.579,242.7c4.952,0,9.458,0.805,13.521,2.411c4.062,1.608,7.537,3.888,10.427,6.842
			c2.888,2.955,5.115,6.56,6.679,10.817c1.564,4.258,2.346,9.015,2.346,14.271c0,5.3-0.781,10.079-2.346,14.335
			c-1.563,4.258-3.791,7.885-6.679,10.882c-2.89,2.998-6.364,5.301-10.427,6.907s-8.568,2.411-13.521,2.411
			c-4.996,0-9.536-0.805-13.619-2.411c-4.084-1.606-7.569-3.91-10.458-6.907c-2.891-2.998-5.127-6.624-6.713-10.882
			c-1.586-4.257-2.378-9.035-2.378-14.335c0-5.256,0.792-10.013,2.378-14.271c1.586-4.257,3.822-7.862,6.713-10.817
			c2.889-2.954,6.374-5.234,10.458-6.842C445.043,243.505,449.583,242.7,454.579,242.7z M454.579,299.196
			c5.56,0,9.677-1.867,12.349-5.604c2.672-3.736,4.007-9.209,4.007-16.421c0-7.211-1.335-12.707-4.007-16.486
			c-2.672-3.779-6.789-5.669-12.349-5.669c-5.647,0-9.829,1.901-12.544,5.702c-2.715,3.802-4.072,9.286-4.072,16.454
			s1.357,12.631,4.072,16.388C444.75,297.318,448.932,299.196,454.579,299.196z M477.125,215.332l-16.095,17.007
			c-0.826,0.87-1.619,1.466-2.378,1.792c-0.762,0.326-1.75,0.489-2.966,0.489h-9.644l9.253-15.834
			c0.651-1.129,1.411-1.987,2.28-2.574s2.172-0.88,3.91-0.88H477.125z"/>
		<path fill="#FFFFFF" d="M514.918,251.954c1.346-1.346,2.77-2.596,4.269-3.747c1.499-1.15,3.084-2.128,4.757-2.932
			c1.672-0.803,3.464-1.434,5.376-1.89c1.911-0.457,3.996-0.685,6.255-0.685c3.65,0,6.885,0.619,9.71,1.857
			c2.823,1.238,5.181,2.976,7.069,5.213c1.891,2.238,3.324,4.91,4.301,8.015c0.979,3.106,1.467,6.527,1.467,10.263V310.6h-16.096
			v-42.551c0-4.083-0.934-7.243-2.801-9.481c-1.869-2.237-4.715-3.356-8.537-3.356c-2.78,0-5.387,0.63-7.819,1.89
			c-2.434,1.261-4.735,2.976-6.907,5.148V310.6h-16.096v-66.856h9.84c2.086,0,3.454,0.977,4.105,2.932L514.918,251.954z"/>
	</g>
</g>
</svg>
