<?xml version="1.0" encoding="utf-8"?>
<!-- Generator: Adobe Illustrator 16.0.0, SVG Export Plug-In . SVG Version: 6.00 Build 0)  -->
<!DOCTYPE svg PUBLIC "-//W3C//DTD SVG 1.1//EN" "http://www.w3.org/Graphics/SVG/1.1/DTD/svg11.dtd">
<svg version="1.1" id="Layer_1" xmlns="http://www.w3.org/2000/svg" xmlns:xlink="http://www.w3.org/1999/xlink" x="0px" y="0px"
	 width="64px" height="64px" viewBox="0 0 64 64" enable-background="new 0 0 64 64" xml:space="preserve">
<g>
	<path d="M40.781,4H37V0H27v4h-3.781l-0.75,3H9v57h46V7H41.531L40.781,4z M24.781,6H29V2h6v4h4.219l1.5,6H23.281L24.781,6z
		 M43.281,14H49v44H15V14h5.719H43.281z M53,9v53H11V9h10.969l-0.75,3H13v48h38V12h-8.219l-0.75-3H53z"/>
</g>
<g>
	<path d="M25.192,29.231v4.21h5.313v2.174h-5.313v4.294h6.741v2.258h-9.576V26.984h9.576v2.247H25.192z"/>
	<path d="M43.642,42.167h-2.499c-0.189,0-0.342-0.049-0.457-0.147c-0.115-0.098-0.212-0.21-0.289-0.336l-2.278-3.748
		c-0.035,0.119-0.075,0.23-0.121,0.336c-0.045,0.105-0.096,0.203-0.152,0.294l-2.016,3.118c-0.077,0.119-0.172,0.229-0.283,0.331
		c-0.112,0.102-0.252,0.152-0.42,0.152h-2.32l3.695-5.555l-3.549-5.218h2.499c0.189,0,0.329,0.026,0.42,0.079
		c0.091,0.053,0.172,0.138,0.241,0.257l2.258,3.59c0.077-0.237,0.186-0.472,0.325-0.703l1.816-2.834
		c0.154-0.259,0.354-0.389,0.599-0.389h2.384l-3.538,5.103L43.642,42.167z"/>
</g>
</svg>
