<?xml version="1.0" encoding="utf-8"?>
<!-- Generator: Adobe Illustrator 16.0.0, SVG Export Plug-In . SVG Version: 6.00 Build 0)  -->
<!DOCTYPE svg PUBLIC "-//W3C//DTD SVG 1.1//EN" "http://www.w3.org/Graphics/SVG/1.1/DTD/svg11.dtd">
<svg version="1.1" id="Layer_1" xmlns="http://www.w3.org/2000/svg" xmlns:xlink="http://www.w3.org/1999/xlink" x="0px" y="0px"
	 width="560px" height="560px" viewBox="0 0 560 560" enable-background="new 0 0 560 560" xml:space="preserve">
<g>
	<path d="M375.395,262.037l-0.077,1.335c0,2.598,0.977,4.792,2.932,6.473c1.953,1.684,4.627,2.552,8.021,2.552
		c3.29,0,6.554-0.672,9.329-2.042c2.777-1.37,4.4-3.195,6.4-5.502V251h-8.788C382.054,251,376.114,254.825,375.395,262.037z"/>
	<path d="M170.673,224.396c-5.349,0-9.504,2.047-12.563,6.14c-3.06,4.092-4.565,10.208-4.565,18.344
		c0,7.079,1.527,12.628,4.562,16.648c3.034,4.021,7.109,6.031,12.406,6.031c6.787,0,11.487-2.384,14.487-7.15v-32.862
		C182,226.781,177.306,224.396,170.673,224.396z"/>
	<path d="M482,360.263c0,0,0-194.32,0-228.663S448.961,98,448.961,98s-299.42,0-335.555,0S78,128.262,78,128.262v317
		c0,0,0.979,16.479,15.604,16.479s18.838-27.351,27.241-48.36C129.249,392.373,147.961,393,147.961,393s267.723,0,302.473,0
		S482,360.263,482,360.263z M330.582,177h24.296l-21.365,22h-18.126L330.582,177z M208,284.325c0,6.826-1.878,12.764-5.195,17.812
		c-3.317,5.048-8.093,8.894-14.11,11.538c-6.016,2.644-13.116,3.966-21.188,3.966c-6.12,0-12.112-1.143-17.922-3.425
		c-5.811-2.284-10.221-5.229-13.202-8.834l9.865-12.692c5.553,5.816,12.286,8.726,20.205,8.726c5.913,0,10.417-1.479,13.709-4.435
		c3.29-2.957,4.838-7.152,4.838-12.585v-4.183c-5,5.434-11.809,8.15-20.189,8.15c-10.026,0-18.229-3.666-24.425-10.999
		c-6.197-7.331-9.385-17.055-9.385-29.17v-0.865c0-11.971,3.186-21.61,9.279-28.918c6.093-7.308,14.377-10.962,24.712-10.962
		c9.152,0,16.309,2.987,21.4,8.853l0.96-7.302H208V284.325z M296,287h-20.721l-0.617-7.973c-5.502,6.25-13.111,9.355-22.83,9.355
		c-8.947,0-15.845-2.413-20.549-7.222c-4.705-4.807-7.283-11.861-7.283-21.14V209h22v50.359c0,8.135,4.229,12.201,12.148,12.201
		c7.56,0,12.852-2.454,15.852-7.365V209h22V287z M337,287h-22v-78h22V287z M427,287h-22.296c-1.029-2-1.773-4.246-2.236-7.035
		c-5.399,5.625-12.418,8.418-21.057,8.418c-8.176,0-14.951-2.221-20.324-6.645c-5.374-4.423-8.06-10.004-8.06-16.736
		c0-8.269,3.277-14.744,9.834-19.167c6.556-4.423,16.029-6.835,28.422-6.835H402v-4.219c0-3.606-1.221-6.491-3.199-8.654
		c-1.979-2.164-5.218-3.245-9.485-3.245c-3.754,0-6.755,0.676-8.888,2.359c-2.135,1.684-3.259,3.759-3.259,6.759h-22.291
		c0-4,1.491-8.537,4.474-12.384c2.981-3.846,7.198-6.779,12.649-8.968c5.45-2.187,11.569-3.24,18.357-3.24
		c10.283,0,18.491,2.436,24.534,7.268c6.041,4.832,9.107,11.644,9.107,20.394v33.822c0,7.404,1,13.006,3,16.804V287z"/>
</g>
<g>
</g>
<g>
</g>
<g>
</g>
<g>
</g>
<g>
</g>
<g>
</g>
<g>
</g>
<g>
</g>
<g>
</g>
<g>
</g>
<g>
</g>
<g>
</g>
<g>
</g>
<g>
</g>
<g>
</g>
</svg>
