<?xml version="1.0" encoding="utf-8"?>
<!-- Generator: Adobe Illustrator 16.0.0, SVG Export Plug-In . SVG Version: 6.00 Build 0)  -->
<!DOCTYPE svg PUBLIC "-//W3C//DTD SVG 1.1//EN" "http://www.w3.org/Graphics/SVG/1.1/DTD/svg11.dtd">
<svg version="1.1" id="Layer_1" xmlns="http://www.w3.org/2000/svg" xmlns:xlink="http://www.w3.org/1999/xlink" x="0px" y="0px"
	 width="295px" height="250px" viewBox="0 0 295 250" enable-background="new 0 0 295 250" xml:space="preserve">
<g>
	<path opacity="0.5" enable-background="new    " d="M155.117,57.93c-0.535-0.504-1.211-0.892-2.027-1.164s-1.785-0.408-2.904-0.408
		h-4.561v11.856h4.561c2.256,0,3.908-0.543,4.957-1.632c1.047-1.088,1.57-2.576,1.57-4.464c0-0.864-0.131-1.652-0.395-2.364
		S155.654,58.434,155.117,57.93z"/>
	<path opacity="0.5" enable-background="new    " d="M179,21h-61c-6.627,0-12,5.373-12,12v72c0,6.627,5.373,12,12,12h61
		c6.627,0,12-5.373,12-12V33C191,26.373,185.627,21,179,21z M163.098,66.822c-0.561,1.424-1.408,2.648-2.543,3.672
		c-1.137,1.024-2.568,1.82-4.297,2.388c-1.729,0.568-3.752,0.852-6.072,0.852h-4.561V85.71h-7.199V50.886h11.76
		c2.385,0,4.443,0.28,6.181,0.84s3.163,1.34,4.284,2.34c1.119,1,1.947,2.188,2.484,3.564c0.535,1.376,0.803,2.872,0.803,4.488
		C163.938,63.83,163.659,65.398,163.098,66.822z"/>
</g>
<path opacity="0.5" enable-background="new    " d="M179,131h-61c-6.627,0-12,5.373-12,12v72c0,6.627,5.373,12,12,12h61
	c6.627,0,12-5.373,12-12v-72C191,136.373,185.627,131,179,131z M167.874,196.412h-6.358v-21.385c0-0.447,0.012-0.928,0.034-1.439
	c0.024-0.512,0.068-1.031,0.134-1.561l-9.961,18.889c-0.545,1.041-1.385,1.561-2.521,1.561h-1.009c-0.561,0-1.057-0.133-1.487-0.396
	s-0.776-0.651-1.032-1.164l-10.008-18.96c0.048,0.561,0.088,1.102,0.12,1.62c0.032,0.519,0.048,1.004,0.048,1.452v21.384h-6.359
	v-34.824h5.472c0.304,0,0.576,0.009,0.815,0.024c0.24,0.017,0.452,0.06,0.637,0.132c0.184,0.071,0.352,0.185,0.504,0.336
	c0.151,0.151,0.3,0.364,0.443,0.637l9.744,18.575c0.305,0.561,0.588,1.137,0.854,1.729c0.264,0.592,0.516,1.201,0.756,1.823
	c0.24-0.639,0.492-1.264,0.756-1.87c0.264-0.608,0.548-1.192,0.854-1.752l9.672-18.505c0.144-0.272,0.295-0.483,0.455-0.637
	c0.159-0.151,0.332-0.265,0.517-0.336c0.184-0.072,0.392-0.115,0.624-0.132c0.23-0.018,0.508-0.024,0.828-0.024h5.47V196.412z"/>
<path opacity="0.5" enable-background="new    " d="M88,21H14C7.373,21,2,26.373,2,33v182c0,6.627,5.373,12,12,12h74
	c6.627,0,12-5.373,12-12V33C100,26.373,94.627,21,88,21z M89,205.167H12v-3.668h77V205.167z M89,178.139H12v-3.668h77V178.139z
	 M89,151.111H12v-3.668h77V151.111z M89,124.083H12v-3.668h77V124.083z M89,97.056H12v-3.668h77V97.056z M89,70.028H12V66.36h77
	V70.028z M89,43H12v-3.667h77V43z"/>
<path opacity="0.5" enable-background="new    " d="M281,21h-73c-6.627,0-12,5.373-12,12v182c0,6.627,5.373,12,12,12h73
	c6.627,0,12-5.373,12-12V33C293,26.373,287.627,21,281,21z M206,41.666h56.667v3.668H206V41.666z M206,94.61h56.667v3.668H206V94.61
	z M206,147.555h56.667v3.668H206V147.555z M262.667,204.168H206V200.5h56.667V204.168z M283.667,177.695H227v-3.668h56.667V177.695z
	 M283.667,124.751H227v-3.668h56.667V124.751z M283.667,71.806H227v-3.668h56.667V71.806z"/>
</svg>
