<?xml version="1.0" encoding="utf-8"?>
<!-- Generator: Adobe Illustrator 16.0.0, SVG Export Plug-In . SVG Version: 6.00 Build 0)  -->
<!DOCTYPE svg PUBLIC "-//W3C//DTD SVG 1.1//EN" "http://www.w3.org/Graphics/SVG/1.1/DTD/svg11.dtd">
<svg version="1.1" id="Layer_1" xmlns="http://www.w3.org/2000/svg" xmlns:xlink="http://www.w3.org/1999/xlink" x="0px" y="0px"
	 width="250px" height="250px" viewBox="0 0 250 250" enable-background="new 0 0 250 250" xml:space="preserve">
<g>
	<path opacity="0.5" enable-background="new    " d="M226,21h-69c-6.627,0-12,5.373-12,12v72c0,6.627,5.373,12,12,12h69
		c6.627,0,12-5.373,12-12V33C238,26.373,232.627,21,226,21z M206.32,66.112c-0.562,1.424-1.408,2.648-2.545,3.672
		c-1.137,1.024-2.567,1.82-4.295,2.388c-1.729,0.568-3.754,0.852-6.072,0.852h-4.561V85h-7.199V50.176h11.76
		c2.384,0,4.443,0.28,6.18,0.84c1.737,0.56,3.164,1.34,4.284,2.34s1.946,2.188,2.483,3.564c0.535,1.376,0.805,2.872,0.805,4.488
		C207.16,63.12,206.88,64.688,206.32,66.112z"/>
	<path opacity="0.5" enable-background="new    " d="M198.339,57.22c-0.536-0.504-1.212-0.892-2.028-1.164
		c-0.814-0.272-1.783-0.408-2.902-0.408h-4.561v11.856h4.561c2.256,0,3.906-0.543,4.955-1.632c1.049-1.088,1.572-2.576,1.572-4.464
		c0-0.864-0.133-1.652-0.396-2.364S198.875,57.724,198.339,57.22z"/>
</g>
<path opacity="0.5" enable-background="new    " d="M226,131h-69c-6.627,0-12,5.373-12,12v72c0,6.627,5.373,12,12,12h69
	c6.627,0,12-5.373,12-12v-72C238,136.373,232.627,131,226,131z M211.048,195h-6.358v-21.384c0-0.448,0.012-0.929,0.035-1.44
	s0.067-1.031,0.133-1.56l-9.961,18.888c-0.545,1.041-1.385,1.561-2.521,1.561h-1.008c-0.562,0-1.058-0.133-1.488-0.396
	s-0.776-0.651-1.032-1.164l-10.008-18.96c0.049,0.561,0.088,1.102,0.12,1.62s0.048,1.004,0.048,1.452V195h-6.359v-34.824h5.473
	c0.304,0,0.576,0.008,0.814,0.024c0.24,0.017,0.453,0.06,0.638,0.132c0.184,0.072,0.352,0.184,0.504,0.336
	c0.151,0.152,0.3,0.364,0.442,0.637l9.744,18.575c0.305,0.562,0.588,1.136,0.854,1.728c0.264,0.594,0.516,1.201,0.756,1.824
	c0.24-0.639,0.492-1.264,0.756-1.871s0.548-1.191,0.854-1.752l9.672-18.504c0.144-0.271,0.296-0.484,0.455-0.637
	c0.16-0.152,0.332-0.264,0.517-0.336s0.392-0.115,0.624-0.132c0.23-0.017,0.508-0.024,0.828-0.024h5.47V195z"/>
<path opacity="0.5" enable-background="new    " d="M122,21H23c-6.627,0-12,5.373-12,12v182c0,6.627,5.373,12,12,12h99
	c6.627,0,12-5.373,12-12V33C134,26.373,128.627,21,122,21z M122,205.667H23V202h99V205.667z M122,179.056H23v-3.667h99V179.056z
	 M122,152.444H23v-3.667h99V152.444z M122,125.834H23v-3.667h99V125.834z M122,99.222H23v-3.667h99V99.222z M122,72.611H23v-3.667
	h99V72.611z M122,46H23v-3.667h99V46z"/>
</svg>
